<svg width="898" height="600" viewBox="0 0 898 600" fill="none" xmlns="http://www.w3.org/2000/svg">
<path d="M96.352 100L89.248 77.984H91.584L97.568 96.928H96.864L102.784 77.984H104.544L110.496 96.928H109.76L115.744 77.984H118.112L110.976 100H109.248L103.328 81.088H104L98.08 100H96.352ZM126.06 100.32C124.545 100.32 123.19 99.9787 121.996 99.296C120.801 98.6133 119.852 97.6747 119.148 96.48C118.465 95.2853 118.124 93.9413 118.124 92.448C118.124 90.976 118.465 89.6533 119.148 88.48C119.83 87.2853 120.758 86.3467 121.932 85.664C123.105 84.9813 124.417 84.64 125.868 84.64C127.233 84.64 128.438 84.9493 129.484 85.568C130.55 86.1867 131.382 87.0507 131.98 88.16C132.598 89.248 132.908 90.5067 132.908 91.936C132.908 92.1067 132.897 92.3093 132.876 92.544C132.854 92.7573 132.812 93.0133 132.748 93.312H119.724V91.392H131.532L130.732 92.096C130.753 90.9867 130.561 90.0373 130.156 89.248C129.772 88.4373 129.206 87.8187 128.46 87.392C127.734 86.944 126.849 86.72 125.804 86.72C124.716 86.72 123.766 86.9547 122.956 87.424C122.145 87.8933 121.505 88.5547 121.036 89.408C120.588 90.24 120.364 91.232 120.364 92.384C120.364 93.536 120.598 94.5493 121.068 95.424C121.558 96.2987 122.23 96.9813 123.084 97.472C123.958 97.9627 124.961 98.208 126.092 98.208C127.009 98.208 127.852 98.048 128.62 97.728C129.388 97.3867 130.038 96.8853 130.572 96.224L132.012 97.696C131.308 98.528 130.433 99.1787 129.388 99.648C128.364 100.096 127.254 100.32 126.06 100.32ZM144.111 100.32C142.959 100.32 141.924 100.085 141.007 99.616C140.089 99.1467 139.332 98.5067 138.735 97.696C138.159 96.864 137.807 95.904 137.679 94.816V90.112C137.807 89.0027 138.169 88.0427 138.766 87.232C139.364 86.4 140.121 85.76 141.039 85.312C141.977 84.864 143.001 84.64 144.111 84.64C145.497 84.64 146.745 84.992 147.855 85.696C148.964 86.3787 149.839 87.3173 150.479 88.512C151.14 89.6853 151.471 91.0187 151.471 92.512C151.471 93.984 151.151 95.3067 150.51 96.48C149.871 97.6533 148.985 98.592 147.855 99.296C146.745 99.9787 145.497 100.32 144.111 100.32ZM136.335 100V77.344H138.575V88.64L138.127 92.256L138.575 95.968V100H136.335ZM143.727 98.176C144.793 98.176 145.732 97.9413 146.543 97.472C147.353 96.9813 147.983 96.3093 148.431 95.456C148.9 94.5813 149.135 93.5893 149.135 92.48C149.135 91.3493 148.9 90.3573 148.431 89.504C147.983 88.6507 147.353 87.9787 146.543 87.488C145.732 86.9973 144.804 86.752 143.759 86.752C142.713 86.752 141.785 86.9973 140.975 87.488C140.185 87.9787 139.567 88.6507 139.119 89.504C138.671 90.3573 138.447 91.3493 138.447 92.48C138.447 93.5893 138.671 94.5813 139.119 95.456C139.567 96.3093 140.185 96.9813 140.975 97.472C141.764 97.9413 142.681 98.176 143.727 98.176ZM160.717 100.32C159.309 100.32 158.019 100.043 156.845 99.488C155.693 98.9333 154.723 98.1333 153.933 97.088L155.501 95.52C156.035 96.3307 156.76 96.9707 157.677 97.44C158.595 97.888 159.597 98.112 160.685 98.112C161.752 98.112 162.669 97.9093 163.437 97.504C164.227 97.0987 164.835 96.5333 165.261 95.808C165.709 95.0613 165.933 94.1973 165.933 93.216C165.933 92.2133 165.709 91.3493 165.261 90.624C164.835 89.8987 164.216 89.3333 163.405 88.928C162.616 88.5227 161.667 88.32 160.557 88.32C160.195 88.32 159.821 88.3413 159.437 88.384C159.075 88.4267 158.712 88.5013 158.349 88.608L159.245 87.296C159.608 87.104 160.003 86.9547 160.429 86.848C160.856 86.7413 161.325 86.688 161.837 86.688C163.053 86.688 164.152 86.976 165.133 87.552C166.115 88.1067 166.883 88.8853 167.437 89.888C168.013 90.8693 168.301 92.0107 168.301 93.312C168.301 94.6987 167.981 95.9147 167.341 96.96C166.701 98.0053 165.805 98.8267 164.653 99.424C163.523 100.021 162.211 100.32 160.717 100.32ZM158.349 88.608V87.168L165.325 79.328L168.045 79.424L160.941 87.36L158.349 88.608ZM154.893 80.064V77.984H168.045V79.424L166.029 80.064H154.893Z" fill="white"/>
<path d="M89.352 524L82.248 501.984H84.584L90.568 520.928H89.864L95.784 501.984H97.544L103.496 520.928H102.76L108.744 501.984H111.112L103.976 524H102.248L96.328 505.088H97L91.08 524H89.352ZM118.644 524.32C117.214 524.32 115.934 523.979 114.804 523.296C113.673 522.592 112.777 521.653 112.116 520.48C111.476 519.307 111.156 517.984 111.156 516.512C111.156 515.019 111.476 513.685 112.116 512.512C112.777 511.317 113.673 510.379 114.804 509.696C115.934 508.992 117.204 508.64 118.612 508.64C119.764 508.64 120.788 508.875 121.684 509.344C122.601 509.792 123.337 510.432 123.892 511.264C124.468 512.075 124.82 513.024 124.948 514.112V518.816C124.82 519.904 124.468 520.864 123.892 521.696C123.337 522.528 122.601 523.179 121.684 523.648C120.788 524.096 119.774 524.32 118.644 524.32ZM118.996 522.176C120.553 522.176 121.801 521.653 122.74 520.608C123.7 519.563 124.18 518.187 124.18 516.48C124.18 515.349 123.956 514.357 123.508 513.504C123.081 512.629 122.473 511.957 121.684 511.488C120.916 510.997 120.009 510.752 118.964 510.752C117.897 510.752 116.948 510.997 116.116 511.488C115.305 511.979 114.654 512.661 114.164 513.536C113.694 514.389 113.46 515.371 113.46 516.48C113.46 517.589 113.694 518.571 114.164 519.424C114.654 520.277 115.316 520.949 116.148 521.44C116.98 521.931 117.929 522.176 118.996 522.176ZM124.052 524V519.968L124.5 516.256L124.052 512.64V508.96H126.292V524H124.052ZM130.835 524V501.344H133.075V524H130.835ZM137.616 524V501.344H139.856V524H137.616ZM151.341 524.32C149.826 524.32 148.472 523.979 147.277 523.296C146.082 522.613 145.133 521.675 144.429 520.48C143.746 519.285 143.405 517.941 143.405 516.448C143.405 514.976 143.746 513.653 144.429 512.48C145.112 511.285 146.04 510.347 147.213 509.664C148.386 508.981 149.698 508.64 151.149 508.64C152.514 508.64 153.72 508.949 154.765 509.568C155.832 510.187 156.664 511.051 157.261 512.16C157.88 513.248 158.189 514.507 158.189 515.936C158.189 516.107 158.178 516.309 158.157 516.544C158.136 516.757 158.093 517.013 158.029 517.312H145.005V515.392H156.813L156.013 516.096C156.034 514.987 155.842 514.037 155.437 513.248C155.053 512.437 154.488 511.819 153.741 511.392C153.016 510.944 152.13 510.72 151.085 510.72C149.997 510.72 149.048 510.955 148.237 511.424C147.426 511.893 146.786 512.555 146.317 513.408C145.869 514.24 145.645 515.232 145.645 516.384C145.645 517.536 145.88 518.549 146.349 519.424C146.84 520.299 147.512 520.981 148.365 521.472C149.24 521.963 150.242 522.208 151.373 522.208C152.29 522.208 153.133 522.048 153.901 521.728C154.669 521.387 155.32 520.885 155.853 520.224L157.293 521.696C156.589 522.528 155.714 523.179 154.669 523.648C153.645 524.096 152.536 524.32 151.341 524.32ZM163.389 524V502.624H165.629V524H163.389ZM159.581 510.976V508.96H169.405V510.976H159.581Z" fill="white"/>
<path d="M8.896 312.32C7.18933 312.32 5.71733 312 4.48 311.36C3.24267 310.699 2.15467 309.781 1.216 308.608L2.848 307.008C3.59467 308.053 4.45867 308.832 5.44 309.344C6.44267 309.856 7.62667 310.112 8.992 310.112C10.4 310.112 11.5413 309.792 12.416 309.152C13.2907 308.512 13.728 307.627 13.728 306.496C13.728 305.621 13.5253 304.907 13.12 304.352C12.7147 303.776 12.1813 303.317 11.52 302.976C10.88 302.613 10.1653 302.293 9.376 302.016C8.58667 301.739 7.79733 301.451 7.008 301.152C6.24 300.832 5.52533 300.437 4.864 299.968C4.20267 299.499 3.66933 298.901 3.264 298.176C2.88 297.451 2.688 296.523 2.688 295.392C2.688 294.197 2.976 293.173 3.552 292.32C4.128 291.467 4.91733 290.816 5.92 290.368C6.92267 289.899 8.064 289.664 9.344 289.664C10.7733 289.664 12.0427 289.941 13.152 290.496C14.2827 291.051 15.2213 291.797 15.968 292.736L14.368 294.336C13.6853 293.525 12.9387 292.907 12.128 292.48C11.3173 292.053 10.368 291.84 9.28 291.84C8 291.84 6.976 292.139 6.208 292.736C5.44 293.333 5.056 294.165 5.056 295.232C5.056 296.064 5.248 296.736 5.632 297.248C6.03733 297.76 6.57067 298.187 7.232 298.528C7.89333 298.869 8.608 299.179 9.376 299.456C10.1653 299.712 10.9547 300 11.744 300.32C12.5333 300.64 13.248 301.045 13.888 301.536C14.5493 302.027 15.0827 302.656 15.488 303.424C15.8933 304.171 16.096 305.131 16.096 306.304C16.096 308.203 15.4453 309.685 14.144 310.752C12.864 311.797 11.1147 312.32 8.896 312.32ZM26.5255 312.32C25.0748 312.32 23.7522 311.968 22.5575 311.264C21.3842 310.56 20.4455 309.611 19.7415 308.416C19.0588 307.221 18.7175 305.888 18.7175 304.416C18.7175 302.965 19.0588 301.653 19.7415 300.48C20.4455 299.307 21.3842 298.379 22.5575 297.696C23.7522 296.992 25.0748 296.64 26.5255 296.64C27.9975 296.64 29.3202 296.981 30.4935 297.664C31.6668 298.347 32.5948 299.285 33.2775 300.48C33.9815 301.653 34.3335 302.965 34.3335 304.416C34.3335 305.909 33.9815 307.253 33.2775 308.448C32.5948 309.621 31.6668 310.56 30.4935 311.264C29.3202 311.968 27.9975 312.32 26.5255 312.32ZM26.5255 310.144C27.5922 310.144 28.5308 309.899 29.3415 309.408C30.1735 308.917 30.8242 308.235 31.2935 307.36C31.7842 306.485 32.0295 305.504 32.0295 304.416C32.0295 303.328 31.7842 302.368 31.2935 301.536C30.8242 300.683 30.1735 300.011 29.3415 299.52C28.5308 299.029 27.5922 298.784 26.5255 298.784C25.4802 298.784 24.5415 299.029 23.7095 299.52C22.8775 300.011 22.2268 300.683 21.7575 301.536C21.2882 302.368 21.0535 303.328 21.0535 304.416C21.0535 305.525 21.2882 306.517 21.7575 307.392C22.2268 308.245 22.8775 308.917 23.7095 309.408C24.5415 309.899 25.4802 310.144 26.5255 310.144ZM37.897 312V289.344H40.137V312H37.897ZM50.6302 312.32C49.4143 312.32 48.3263 312.043 47.3663 311.488C46.4063 310.912 45.6489 310.133 45.0943 309.152C44.5609 308.171 44.2943 307.019 44.2943 305.696V296.96H46.5663V305.6C46.5663 306.517 46.7263 307.317 47.0463 308C47.3876 308.683 47.8676 309.216 48.4863 309.6C49.1049 309.984 49.8196 310.176 50.6302 310.176C51.8889 310.176 52.8809 309.76 53.6063 308.928C54.3529 308.096 54.7263 306.987 54.7263 305.6V296.96H56.9663V305.696C56.9663 306.997 56.6996 308.149 56.1663 309.152C55.6329 310.155 54.8863 310.933 53.9263 311.488C52.9663 312.043 51.8676 312.32 50.6302 312.32ZM63.483 312V290.624H65.723V312H63.483ZM59.675 298.976V296.96H69.499V298.976H59.675ZM72.5845 312V296.96H74.8565V312H72.5845ZM73.7045 293.696C73.2778 293.696 72.9152 293.547 72.6165 293.248C72.3178 292.928 72.1685 292.555 72.1685 292.128C72.1685 291.68 72.3178 291.307 72.6165 291.008C72.9152 290.709 73.2778 290.56 73.7045 290.56C74.1738 290.56 74.5472 290.709 74.8245 291.008C75.1232 291.307 75.2725 291.68 75.2725 292.128C75.2725 292.555 75.1232 292.928 74.8245 293.248C74.5472 293.547 74.1738 293.696 73.7045 293.696ZM86.213 312.32C84.7623 312.32 83.4397 311.968 82.245 311.264C81.0717 310.56 80.133 309.611 79.429 308.416C78.7463 307.221 78.405 305.888 78.405 304.416C78.405 302.965 78.7463 301.653 79.429 300.48C80.133 299.307 81.0717 298.379 82.245 297.696C83.4397 296.992 84.7623 296.64 86.213 296.64C87.685 296.64 89.0077 296.981 90.181 297.664C91.3543 298.347 92.2823 299.285 92.965 300.48C93.669 301.653 94.021 302.965 94.021 304.416C94.021 305.909 93.669 307.253 92.965 308.448C92.2823 309.621 91.3543 310.56 90.181 311.264C89.0077 311.968 87.685 312.32 86.213 312.32ZM86.213 310.144C87.2797 310.144 88.2183 309.899 89.029 309.408C89.861 308.917 90.5117 308.235 90.981 307.36C91.4717 306.485 91.717 305.504 91.717 304.416C91.717 303.328 91.4717 302.368 90.981 301.536C90.5117 300.683 89.861 300.011 89.029 299.52C88.2183 299.029 87.2797 298.784 86.213 298.784C85.1677 298.784 84.229 299.029 83.397 299.52C82.565 300.011 81.9143 300.683 81.445 301.536C80.9757 302.368 80.741 303.328 80.741 304.416C80.741 305.525 80.9757 306.517 81.445 307.392C81.9143 308.245 82.565 308.917 83.397 309.408C84.229 309.899 85.1677 310.144 86.213 310.144ZM108.529 312V303.168C108.529 301.845 108.134 300.779 107.345 299.968C106.577 299.136 105.553 298.72 104.273 298.72C103.398 298.72 102.63 298.912 101.969 299.296C101.307 299.68 100.785 300.203 100.401 300.864C100.017 301.525 99.8245 302.283 99.8245 303.136L98.8005 302.56C98.8005 301.429 99.0672 300.416 99.6005 299.52C100.134 298.624 100.849 297.92 101.745 297.408C102.662 296.896 103.707 296.64 104.881 296.64C106.033 296.64 107.057 296.917 107.953 297.472C108.849 298.027 109.542 298.773 110.033 299.712C110.545 300.651 110.801 301.675 110.801 302.784V312H108.529ZM97.5845 312V296.96H99.8245V312H97.5845Z" fill="white"/>
<path d="M735.896 100.32C734.189 100.32 732.717 100 731.48 99.36C730.243 98.6987 729.155 97.7813 728.216 96.608L729.848 95.008C730.595 96.0533 731.459 96.832 732.44 97.344C733.443 97.856 734.627 98.112 735.992 98.112C737.4 98.112 738.541 97.792 739.416 97.152C740.291 96.512 740.728 95.6267 740.728 94.496C740.728 93.6213 740.525 92.9067 740.12 92.352C739.715 91.776 739.181 91.3173 738.52 90.976C737.88 90.6133 737.165 90.2933 736.376 90.016C735.587 89.7387 734.797 89.4507 734.008 89.152C733.24 88.832 732.525 88.4373 731.864 87.968C731.203 87.4987 730.669 86.9013 730.264 86.176C729.88 85.4507 729.688 84.5227 729.688 83.392C729.688 82.1973 729.976 81.1733 730.552 80.32C731.128 79.4667 731.917 78.816 732.92 78.368C733.923 77.8987 735.064 77.664 736.344 77.664C737.773 77.664 739.043 77.9413 740.152 78.496C741.283 79.0507 742.221 79.7973 742.968 80.736L741.368 82.336C740.685 81.5253 739.939 80.9067 739.128 80.48C738.317 80.0533 737.368 79.84 736.28 79.84C735 79.84 733.976 80.1387 733.208 80.736C732.44 81.3333 732.056 82.1653 732.056 83.232C732.056 84.064 732.248 84.736 732.632 85.248C733.037 85.76 733.571 86.1867 734.232 86.528C734.893 86.8693 735.608 87.1787 736.376 87.456C737.165 87.712 737.955 88 738.744 88.32C739.533 88.64 740.248 89.0453 740.888 89.536C741.549 90.0267 742.083 90.656 742.488 91.424C742.893 92.1707 743.096 93.1307 743.096 94.304C743.096 96.2027 742.445 97.6853 741.144 98.752C739.864 99.7973 738.115 100.32 735.896 100.32ZM753.654 100.32C752.139 100.32 750.784 99.9787 749.59 99.296C748.395 98.6133 747.446 97.6747 746.742 96.48C746.059 95.2853 745.718 93.9413 745.718 92.448C745.718 90.976 746.059 89.6533 746.742 88.48C747.424 87.2853 748.352 86.3467 749.526 85.664C750.699 84.9813 752.011 84.64 753.462 84.64C754.827 84.64 756.032 84.9493 757.078 85.568C758.144 86.1867 758.976 87.0507 759.574 88.16C760.192 89.248 760.502 90.5067 760.502 91.936C760.502 92.1067 760.491 92.3093 760.47 92.544C760.448 92.7573 760.406 93.0133 760.342 93.312H747.318V91.392H759.126L758.326 92.096C758.347 90.9867 758.155 90.0373 757.75 89.248C757.366 88.4373 756.8 87.8187 756.054 87.392C755.328 86.944 754.443 86.72 753.398 86.72C752.31 86.72 751.36 86.9547 750.55 87.424C749.739 87.8933 749.099 88.5547 748.63 89.408C748.182 90.24 747.958 91.232 747.958 92.384C747.958 93.536 748.192 94.5493 748.661 95.424C749.152 96.2987 749.824 96.9813 750.678 97.472C751.552 97.9627 752.555 98.208 753.686 98.208C754.603 98.208 755.446 98.048 756.214 97.728C756.982 97.3867 757.632 96.8853 758.166 96.224L759.606 97.696C758.902 98.528 758.027 99.1787 756.982 99.648C755.958 100.096 754.848 100.32 753.654 100.32ZM770.776 100.32C769.304 100.32 767.971 99.9787 766.776 99.296C765.603 98.592 764.664 97.6427 763.96 96.448C763.278 95.2533 762.936 93.92 762.936 92.448C762.936 90.976 763.278 89.6533 763.96 88.48C764.664 87.2853 765.603 86.3467 766.776 85.664C767.971 84.9813 769.304 84.64 770.776 84.64C771.907 84.64 772.963 84.8533 773.944 85.28C774.926 85.7067 775.758 86.304 776.44 87.072L774.968 88.576C774.456 88 773.838 87.5627 773.112 87.264C772.387 86.944 771.608 86.784 770.776 86.784C769.71 86.784 768.76 87.0293 767.928 87.52C767.096 88.0107 766.446 88.6827 765.976 89.536C765.507 90.368 765.272 91.3387 765.272 92.448C765.272 93.536 765.507 94.5173 765.976 95.392C766.446 96.2453 767.096 96.9173 767.928 97.408C768.76 97.8987 769.71 98.144 770.776 98.144C771.63 98.144 772.419 97.9947 773.144 97.696C773.87 97.376 774.488 96.928 775 96.352L776.504 97.856C775.8 98.6453 774.947 99.2533 773.944 99.68C772.963 100.107 771.907 100.32 770.776 100.32ZM785.599 100.32C784.383 100.32 783.295 100.043 782.335 99.488C781.375 98.912 780.618 98.1333 780.063 97.152C779.53 96.1707 779.263 95.0187 779.263 93.696V84.96H781.535V93.6C781.535 94.5173 781.695 95.3173 782.015 96C782.356 96.6827 782.836 97.216 783.455 97.6C784.074 97.984 784.788 98.176 785.599 98.176C786.858 98.176 787.85 97.76 788.575 96.928C789.322 96.096 789.695 94.9867 789.695 93.6V84.96H791.935V93.696C791.935 94.9973 791.668 96.1493 791.135 97.152C790.602 98.1547 789.855 98.9333 788.895 99.488C787.935 100.043 786.836 100.32 785.599 100.32ZM796.116 100V84.96H798.356V100H796.116ZM798.356 91.232L797.428 90.816C797.428 88.9173 797.886 87.4133 798.804 86.304C799.742 85.1947 801.022 84.64 802.644 84.64C803.39 84.64 804.073 84.7787 804.692 85.056C805.31 85.312 805.886 85.728 806.42 86.304L804.948 87.872C804.585 87.4667 804.18 87.1787 803.732 87.008C803.305 86.8373 802.814 86.752 802.26 86.752C801.108 86.752 800.169 87.136 799.444 87.904C798.718 88.6507 798.356 89.76 798.356 91.232ZM808.803 100V84.96H811.075V100H808.803ZM809.923 81.696C809.497 81.696 809.134 81.5467 808.835 81.248C808.537 80.928 808.387 80.5547 808.387 80.128C808.387 79.68 808.537 79.3067 808.835 79.008C809.134 78.7093 809.497 78.56 809.923 78.56C810.393 78.56 810.766 78.7093 811.043 79.008C811.342 79.3067 811.491 79.68 811.491 80.128C811.491 80.5547 811.342 80.928 811.043 81.248C810.766 81.5467 810.393 81.696 809.923 81.696ZM817.952 100V78.624H820.192V100H817.952ZM814.144 86.976V84.96H823.968V86.976H814.144ZM832.077 100.064L825.485 84.96H827.949L833.261 97.568H832.333L837.933 84.96H840.429L833.357 100.064H832.077ZM827.981 106.336L832.109 97.792L833.357 100.064L830.445 106.336H827.981Z" fill="white"/>
<path d="M743.768 524L731.736 512.512L743.512 501.984H746.648L734.104 513.152V511.808L746.968 524H743.768ZM729.816 524V501.984H732.152V524H729.816ZM756.2 514.912L747.464 501.984H750.216L757.48 512.832H756.328L763.656 501.984H766.312L757.512 514.912H756.2ZM755.72 524V513.216H758.088V524H755.72ZM774.741 524V502.592H777.109V524H774.741ZM766.997 504.128V501.984H784.853V504.128H766.997Z" fill="white"/>
<path d="M793.352 312L786.248 289.984H788.584L794.568 308.928H793.864L799.784 289.984H801.544L807.496 308.928H806.76L812.744 289.984H815.112L807.976 312H806.248L800.328 293.088H801L795.08 312H793.352ZM822.644 312.32C821.214 312.32 819.934 311.979 818.804 311.296C817.673 310.592 816.777 309.653 816.116 308.48C815.476 307.307 815.156 305.984 815.156 304.512C815.156 303.019 815.476 301.685 816.116 300.512C816.777 299.317 817.673 298.379 818.804 297.696C819.934 296.992 821.204 296.64 822.612 296.64C823.764 296.64 824.788 296.875 825.684 297.344C826.601 297.792 827.337 298.432 827.892 299.264C828.468 300.075 828.82 301.024 828.948 302.112V306.816C828.82 307.904 828.468 308.864 827.892 309.696C827.337 310.528 826.601 311.179 825.684 311.648C824.788 312.096 823.774 312.32 822.644 312.32ZM822.996 310.176C824.553 310.176 825.801 309.653 826.74 308.608C827.7 307.563 828.18 306.187 828.18 304.48C828.18 303.349 827.956 302.357 827.508 301.504C827.081 300.629 826.473 299.957 825.684 299.488C824.916 298.997 824.009 298.752 822.964 298.752C821.897 298.752 820.948 298.997 820.116 299.488C819.305 299.979 818.654 300.661 818.164 301.536C817.694 302.389 817.46 303.371 817.46 304.48C817.46 305.589 817.694 306.571 818.164 307.424C818.654 308.277 819.316 308.949 820.148 309.44C820.98 309.931 821.929 310.176 822.996 310.176ZM828.052 312V307.968L828.5 304.256L828.052 300.64V296.96H830.292V312H828.052ZM841.363 312.32C839.933 312.32 838.653 311.979 837.523 311.296C836.392 310.592 835.496 309.653 834.835 308.48C834.195 307.307 833.875 305.984 833.875 304.512C833.875 303.019 834.195 301.685 834.835 300.512C835.496 299.317 836.392 298.379 837.523 297.696C838.653 296.992 839.923 296.64 841.331 296.64C842.483 296.64 843.507 296.875 844.403 297.344C845.32 297.792 846.056 298.432 846.611 299.264C847.187 300.075 847.539 301.024 847.667 302.112V306.816C847.539 307.904 847.187 308.864 846.611 309.696C846.056 310.528 845.32 311.179 844.403 311.648C843.507 312.096 842.493 312.32 841.363 312.32ZM841.715 310.176C843.272 310.176 844.52 309.653 845.459 308.608C846.419 307.563 846.899 306.187 846.899 304.48C846.899 303.349 846.675 302.357 846.227 301.504C845.8 300.629 845.192 299.957 844.403 299.488C843.635 298.997 842.728 298.752 841.683 298.752C840.616 298.752 839.667 298.997 838.835 299.488C838.024 299.979 837.373 300.661 836.883 301.536C836.413 302.389 836.179 303.371 836.179 304.48C836.179 305.589 836.413 306.571 836.883 307.424C837.373 308.277 838.035 308.949 838.867 309.44C839.699 309.931 840.648 310.176 841.715 310.176ZM846.771 312V307.968L847.219 304.256L846.771 300.64V296.96H849.01V312H846.771ZM860.177 312.32C858.471 312.32 856.999 312 855.761 311.36C854.524 310.699 853.436 309.781 852.497 308.608L854.129 307.008C854.876 308.053 855.74 308.832 856.721 309.344C857.724 309.856 858.908 310.112 860.273 310.112C861.681 310.112 862.823 309.792 863.697 309.152C864.572 308.512 865.009 307.627 865.009 306.496C865.009 305.621 864.807 304.907 864.401 304.352C863.996 303.776 863.463 303.317 862.801 302.976C862.161 302.613 861.447 302.293 860.657 302.016C859.868 301.739 859.079 301.451 858.289 301.152C857.521 300.832 856.807 300.437 856.145 299.968C855.484 299.499 854.951 298.901 854.545 298.176C854.161 297.451 853.969 296.523 853.969 295.392C853.969 294.197 854.257 293.173 854.833 292.32C855.409 291.467 856.199 290.816 857.201 290.368C858.204 289.899 859.345 289.664 860.625 289.664C862.055 289.664 863.324 289.941 864.433 290.496C865.564 291.051 866.503 291.797 867.249 292.736L865.649 294.336C864.967 293.525 864.22 292.907 863.409 292.48C862.599 292.053 861.649 291.84 860.561 291.84C859.281 291.84 858.257 292.139 857.489 292.736C856.721 293.333 856.337 294.165 856.337 295.232C856.337 296.064 856.529 296.736 856.913 297.248C857.319 297.76 857.852 298.187 858.513 298.528C859.175 298.869 859.889 299.179 860.657 299.456C861.447 299.712 862.236 300 863.025 300.32C863.815 300.64 864.529 301.045 865.169 301.536C865.831 302.027 866.364 302.656 866.769 303.424C867.175 304.171 867.377 305.131 867.377 306.304C867.377 308.203 866.727 309.685 865.425 310.752C864.145 311.797 862.396 312.32 860.177 312.32Z" fill="white"/>
<circle cx="449" cy="300" r="299" stroke="url(#paint0_linear_1172_3213)" stroke-width="2" stroke-dasharray="5 5"/>
<circle cx="203" cy="128" r="12" fill="#9318FF"/>
<circle cx="203" cy="472" r="12" fill="#2E27FF"/>
<circle cx="149" cy="300" r="12" fill="#9318FF"/>
<circle cx="695" cy="128" r="12" fill="#9318FF"/>
<circle cx="695" cy="472" r="12" fill="#4583FF"/>
<circle cx="749" cy="300" r="12" fill="#2E27FF"/>
<defs>
<linearGradient id="paint0_linear_1172_3213" x1="289.403" y1="45.9961" x2="621.361" y2="538.121" gradientUnits="userSpaceOnUse">
<stop stop-color="#7F4EFF"/>
<stop offset="1" stop-color="#00A6FF"/>
</linearGradient>
</defs>
</svg>
