<svg width="316" height="337" viewBox="0 0 316 337" fill="none" xmlns="http://www.w3.org/2000/svg">
<path d="M277.773 160.558C277.873 162.2 277.941 163.852 277.975 165.511L276.975 165.532C276.992 166.352 277 167.175 277 168C277 168.825 276.992 169.648 276.975 170.468L277.975 170.489C277.941 172.148 277.873 173.8 277.773 175.442L276.775 175.381C276.674 177.023 276.541 178.657 276.374 180.28L277.369 180.382C277.2 182.034 276.997 183.677 276.761 185.308L275.771 185.165C275.536 186.795 275.268 188.413 274.967 190.02L275.95 190.204C275.645 191.835 275.307 193.454 274.936 195.06L273.962 194.836C273.593 196.438 273.191 198.027 272.758 199.604L273.722 199.869C273.283 201.467 272.812 203.052 272.309 204.622L271.357 204.317C270.856 205.882 270.324 207.432 269.76 208.968L270.699 209.312C270.129 210.868 269.527 212.409 268.894 213.935L267.971 213.551C267.341 215.069 266.681 216.571 265.992 218.056L266.899 218.477C266.201 219.979 265.474 221.464 264.717 222.932L263.828 222.474C263.076 223.933 262.294 225.374 261.483 226.798L262.352 227.292C261.533 228.731 260.685 230.151 259.809 231.551L258.961 231.021C258.091 232.412 257.193 233.784 256.267 235.136L257.093 235.701C256.158 237.066 255.196 238.411 254.207 239.736L253.406 239.137C252.424 240.452 251.415 241.746 250.381 243.018L251.157 243.648C250.114 244.932 249.044 246.194 247.949 247.432L247.2 246.77C246.114 247.999 245.002 249.206 243.867 250.389L244.589 251.081C243.444 252.274 242.274 253.444 241.081 254.589L240.389 253.867C239.206 255.002 237.999 256.114 236.77 257.2L237.432 257.949C236.194 259.044 234.932 260.114 233.648 261.157L233.018 260.381C231.746 261.415 230.452 262.424 229.137 263.406L229.736 264.207C228.411 265.196 227.066 266.158 225.701 267.093L225.136 266.267C223.784 267.193 222.412 268.091 221.021 268.961L221.551 269.809C220.151 270.685 218.731 271.533 217.292 272.352L216.798 271.483C215.374 272.294 213.933 273.076 212.474 273.828L212.932 274.717C211.464 275.474 209.979 276.201 208.477 276.899L208.056 275.992C206.571 276.681 205.069 277.341 203.551 277.971L203.935 278.894C202.409 279.527 200.868 280.129 199.312 280.699L198.968 279.76C197.432 280.324 195.882 280.856 194.317 281.357L194.622 282.309C193.052 282.812 191.467 283.283 189.869 283.722L189.604 282.758C188.027 283.191 186.438 283.593 184.836 283.962L185.06 284.936C183.454 285.307 181.835 285.645 180.204 285.95L180.02 284.967C178.413 285.268 176.795 285.536 175.165 285.771L175.308 286.761C173.677 286.997 172.034 287.2 170.382 287.369L170.28 286.374C168.656 286.541 167.023 286.674 165.381 286.775L165.442 287.773C163.8 287.873 162.148 287.941 160.489 287.975L160.468 286.975C159.648 286.992 158.825 287 158 287C157.175 287 156.352 286.992 155.532 286.975L155.511 287.975C153.852 287.941 152.2 287.873 150.558 287.773L150.619 286.775C148.977 286.674 147.343 286.541 145.72 286.374L145.618 287.369C143.966 287.2 142.323 286.997 140.692 286.761L140.835 285.771C139.205 285.536 137.587 285.268 135.98 284.967L135.796 285.95C134.165 285.645 132.546 285.307 130.94 284.936L131.164 283.962C129.562 283.593 127.973 283.191 126.396 282.758L126.131 283.722C124.533 283.283 122.948 282.812 121.378 282.309L121.683 281.357C120.118 280.856 118.568 280.324 117.032 279.76L116.688 280.699C115.132 280.129 113.591 279.527 112.065 278.894L112.449 277.971C110.931 277.341 109.429 276.681 107.944 275.992L107.523 276.899C106.021 276.201 104.536 275.474 103.068 274.717L103.526 273.828C102.067 273.076 100.626 272.294 99.2024 271.483L98.7076 272.352C97.2692 271.533 95.8494 270.685 94.4489 269.809L94.9793 268.961C93.5879 268.091 92.2159 267.193 90.8639 266.267L90.299 267.093C88.9336 266.158 87.5885 265.196 86.2645 264.207L86.8629 263.406C85.5482 262.424 84.2544 261.415 82.9824 260.381L82.3516 261.157C81.068 260.114 79.8065 259.044 78.5677 257.949L79.2299 257.2C78.0009 256.114 76.7944 255.002 75.6114 253.867L74.919 254.589C73.7259 253.444 72.5564 252.274 71.4114 251.081L72.1329 250.389C70.9975 249.206 69.8863 247.999 68.8002 246.77L68.0508 247.432C66.9561 246.194 65.8865 244.932 64.8429 243.648L65.6188 243.018C64.5846 241.746 63.5762 240.452 62.5943 239.137L61.7931 239.736C60.8043 238.411 59.8421 237.066 58.9075 235.701L59.7327 235.136C58.8072 233.784 57.9089 232.412 57.0386 231.021L56.1908 231.551C55.3147 230.151 54.4668 228.731 53.6478 227.292L54.5168 226.798C53.7063 225.374 52.9244 223.933 52.1718 222.474L51.2831 222.932C50.5261 221.464 49.7985 219.979 49.1011 218.477L50.0081 218.056C49.3185 216.571 48.6587 215.069 48.0294 213.551L47.1057 213.935C46.4732 212.409 45.8713 210.868 45.3007 209.312L46.2396 208.968C45.6765 207.432 45.1441 205.882 44.6433 204.317L43.6909 204.622C43.1881 203.052 42.7168 201.467 42.2777 199.869L43.242 199.604C42.8088 198.027 42.4072 196.438 42.038 194.836L41.0635 195.06C40.6933 193.454 40.3552 191.835 40.0502 190.204L41.0331 190.02C40.7325 188.413 40.4641 186.795 40.2288 185.165L39.239 185.308C39.0033 183.677 38.8004 182.034 38.631 180.382L39.6258 180.28C39.4594 178.656 39.3256 177.023 39.2251 175.381L38.227 175.442C38.1265 173.8 38.0591 172.148 38.0253 170.489L39.0251 170.468C39.0084 169.648 39 168.825 39 168C39 167.175 39.0084 166.352 39.0251 165.532L38.0253 165.511C38.0591 163.852 38.1265 162.2 38.227 160.558L39.2252 160.619C39.3256 158.977 39.4594 157.343 39.6258 155.72L38.631 155.618C38.8004 153.966 39.0033 152.323 39.239 150.692L40.2288 150.835C40.4641 149.205 40.7325 147.587 41.0331 145.98L40.0502 145.796C40.3552 144.165 40.6933 142.546 41.0635 140.94L42.038 141.164C42.4072 139.562 42.8088 137.973 43.242 136.396L42.2777 136.131C42.7168 134.533 43.1881 132.948 43.6909 131.378L44.6433 131.683C45.1441 130.118 45.6765 128.568 46.2396 127.032L45.3007 126.688C45.8713 125.132 46.4732 123.591 47.1057 122.065L48.0294 122.449C48.6587 120.931 49.3185 119.429 50.0081 117.944L49.1011 117.523C49.7985 116.021 50.5261 114.536 51.2831 113.068L52.1718 113.526C52.9244 112.067 53.7063 110.626 54.5168 109.202L53.6478 108.708C54.4668 107.269 55.3147 105.849 56.1908 104.449L57.0386 104.979C57.9089 103.588 58.8072 102.216 59.7327 100.864L58.9075 100.299C59.8421 98.9336 60.8043 97.5885 61.7931 96.2645L62.5943 96.8629C63.5762 95.5482 64.5846 94.2544 65.6188 92.9824L64.8429 92.3516C65.8865 91.0681 66.9561 89.8065 68.0508 88.5677L68.8002 89.2299C69.8863 88.0009 70.9975 86.7944 72.1329 85.6114L71.4114 84.919C72.5564 83.7259 73.7259 82.5565 74.919 81.4114L75.6114 82.1329C76.7944 80.9975 78.0009 79.8863 79.2299 78.8002L78.5677 78.0508C79.8065 76.9561 81.068 75.8865 82.3516 74.8429L82.9824 75.6188C84.2544 74.5846 85.5482 73.5762 86.8629 72.5943L86.2645 71.7931C87.5885 70.8043 88.9336 69.8421 90.299 68.9075L90.8639 69.7327C92.2159 68.8072 93.5879 67.9089 94.9793 67.0386L94.4489 66.1908C95.8494 65.3147 97.2692 64.4668 98.7075 63.6478L99.2024 64.5168C100.626 63.7063 102.067 62.9244 103.526 62.1718L103.068 61.2831C104.536 60.5261 106.021 59.7985 107.523 59.1011L107.944 60.0081C109.429 59.3185 110.931 58.6587 112.449 58.0294L112.065 57.1057C113.591 56.4732 115.132 55.8713 116.688 55.3007L117.032 56.2396C118.568 55.6765 120.118 55.1441 121.683 54.6433L121.378 53.6909C122.948 53.1881 124.533 52.7168 126.131 52.2777L126.396 53.242C127.973 52.8088 129.562 52.4072 131.164 52.038L130.94 51.0635C132.546 50.6933 134.165 50.3552 135.796 50.0502L135.98 51.0331C137.587 50.7325 139.205 50.4641 140.835 50.2288L140.692 49.239C142.323 49.0033 143.966 48.8004 145.618 48.631L145.72 49.6258C147.344 49.4594 148.977 49.3256 150.619 49.2251L150.558 48.227C152.2 48.1265 153.852 48.0591 155.511 48.0253L155.532 49.0251C156.352 49.0084 157.175 49 158 49C158.825 49 159.648 49.0084 160.468 49.0251L160.489 48.0253C162.148 48.0591 163.8 48.1265 165.442 48.227L165.381 49.2252C167.023 49.3256 168.657 49.4594 170.28 49.6258L170.382 48.631C172.034 48.8004 173.677 49.0033 175.308 49.239L175.165 50.2288C176.795 50.4641 178.413 50.7325 180.02 51.0331L180.204 50.0502C181.835 50.3552 183.454 50.6933 185.06 51.0635L184.836 52.038C186.438 52.4072 188.027 52.8088 189.604 53.242L189.869 52.2777C191.467 52.7168 193.052 53.1881 194.622 53.6909L194.317 54.6433C195.882 55.1441 197.432 55.6765 198.968 56.2396L199.312 55.3007C200.868 55.8713 202.409 56.4732 203.935 57.1057L203.551 58.0294C205.069 58.6587 206.571 59.3185 208.056 60.0081L208.477 59.1011C209.979 59.7985 211.464 60.5261 212.932 61.2831L212.474 62.1718C213.933 62.9244 215.374 63.7063 216.798 64.5168L217.292 63.6478C218.731 64.4668 220.151 65.3147 221.551 66.1908L221.021 67.0386C222.412 67.9089 223.784 68.8072 225.136 69.7327L225.701 68.9075C227.066 69.8421 228.411 70.8043 229.736 71.7931L229.137 72.5943C230.452 73.5762 231.746 74.5846 233.018 75.6188L233.648 74.8429C234.932 75.8865 236.194 76.9561 237.432 78.0508L236.77 78.8002C237.999 79.8863 239.206 80.9975 240.389 82.1329L241.081 81.4114C242.274 82.5564 243.444 83.7259 244.589 84.919L243.867 85.6114C245.002 86.7944 246.114 88.0009 247.2 89.2299L247.949 88.5677C249.044 89.8065 250.114 91.068 251.157 92.3516L250.381 92.9824C251.415 94.2544 252.424 95.5482 253.406 96.8629L254.207 96.2645C255.196 97.5885 256.158 98.9336 257.093 100.299L256.267 100.864C257.193 102.216 258.091 103.588 258.961 104.979L259.809 104.449C260.685 105.849 261.533 107.269 262.352 108.708L261.483 109.202C262.294 110.626 263.076 112.067 263.828 113.526L264.717 113.068C265.474 114.536 266.201 116.021 266.899 117.523L265.992 117.944C266.681 119.429 267.341 120.931 267.971 122.449L268.894 122.065C269.527 123.591 270.129 125.132 270.699 126.688L269.76 127.032C270.324 128.568 270.856 130.118 271.357 131.683L272.309 131.378C272.812 132.948 273.283 134.533 273.722 136.131L272.758 136.396C273.191 137.973 273.593 139.562 273.962 141.164L274.936 140.94C275.307 142.546 275.645 144.165 275.95 145.796L274.967 145.98C275.268 147.587 275.536 149.205 275.771 150.835L276.761 150.692C276.997 152.323 277.2 153.966 277.369 155.618L276.374 155.72C276.541 157.344 276.674 158.977 276.775 160.619L277.773 160.558Z" stroke="url(#paint0_linear_1172_3233)" stroke-width="2" stroke-dasharray="5 5"/>
<circle cx="158" cy="48" r="8" fill="#9318FF"/>
<circle cx="158" cy="289" r="8" fill="#2E27FF"/>
<circle cx="256" cy="100" r="8" fill="#9318FF"/>
<circle cx="256" cy="238" r="8" fill="#9318FF"/>
<circle cx="60" cy="100" r="8" fill="#2E27FF"/>
<circle cx="60" cy="238" r="8" fill="#4583FF"/>
<path d="M19.959 79L15.741 65.928H17.128L20.681 77.176H20.263L23.778 65.928H24.823L28.357 77.176H27.92L31.473 65.928H32.879L28.642 79H27.616L24.101 67.771H24.5L20.985 79H19.959ZM37.351 79.19C36.5023 79.19 35.7423 78.9873 35.071 78.582C34.3996 78.164 33.8676 77.6067 33.475 76.91C33.095 76.2133 32.905 75.428 32.905 74.554C32.905 73.6673 33.095 72.8757 33.475 72.179C33.8676 71.4697 34.3996 70.9123 35.071 70.507C35.7423 70.089 36.496 69.88 37.332 69.88C38.016 69.88 38.624 70.0193 39.156 70.298C39.7006 70.564 40.1376 70.944 40.467 71.438C40.809 71.9193 41.018 72.483 41.094 73.129V75.922C41.018 76.568 40.809 77.138 40.467 77.632C40.1376 78.126 39.7006 78.5123 39.156 78.791C38.624 79.057 38.0223 79.19 37.351 79.19ZM37.56 77.917C38.4846 77.917 39.2256 77.6067 39.783 76.986C40.353 76.3653 40.638 75.5483 40.638 74.535C40.638 73.8637 40.505 73.2747 40.239 72.768C39.9856 72.2487 39.6246 71.8497 39.156 71.571C38.7 71.2797 38.1616 71.134 37.541 71.134C36.9076 71.134 36.344 71.2797 35.85 71.571C35.3686 71.8623 34.9823 72.2677 34.691 72.787C34.4123 73.2937 34.273 73.8763 34.273 74.535C34.273 75.1937 34.4123 75.7763 34.691 76.283C34.9823 76.7897 35.375 77.1887 35.869 77.48C36.363 77.7713 36.9266 77.917 37.56 77.917ZM40.562 79V76.606L40.828 74.402L40.562 72.255V70.07H41.892V79H40.562ZM44.5892 79V65.548H45.9192V79H44.5892ZM48.6156 79V65.548H49.9456V79H48.6156ZM56.765 79.19C55.8656 79.19 55.0613 78.9873 54.352 78.582C53.6426 78.1767 53.079 77.6193 52.661 76.91C52.2556 76.2007 52.053 75.4027 52.053 74.516C52.053 73.642 52.2556 72.8567 52.661 72.16C53.0663 71.4507 53.6173 70.8933 54.314 70.488C55.0106 70.0827 55.7896 69.88 56.651 69.88C57.4616 69.88 58.1773 70.0637 58.798 70.431C59.4313 70.7983 59.9253 71.3113 60.28 71.97C60.6473 72.616 60.831 73.3633 60.831 74.212C60.831 74.3133 60.8246 74.4337 60.812 74.573C60.7993 74.6997 60.774 74.8517 60.736 75.029H53.003V73.889H60.014L59.539 74.307C59.5516 73.6483 59.4376 73.0847 59.197 72.616C58.969 72.1347 58.6333 71.7673 58.19 71.514C57.7593 71.248 57.2336 71.115 56.613 71.115C55.967 71.115 55.4033 71.2543 54.922 71.533C54.4406 71.8117 54.0606 72.2043 53.782 72.711C53.516 73.205 53.383 73.794 53.383 74.478C53.383 75.162 53.5223 75.7637 53.801 76.283C54.0923 76.8023 54.4913 77.2077 54.998 77.499C55.5173 77.7903 56.1126 77.936 56.784 77.936C57.3286 77.936 57.829 77.841 58.285 77.651C58.741 77.4483 59.1273 77.1507 59.444 76.758L60.299 77.632C59.881 78.126 59.3616 78.5123 58.741 78.791C58.133 79.057 57.4743 79.19 56.765 79.19ZM63.9186 79V66.308H65.2486V79H63.9186ZM61.6576 71.267V70.07H67.4906V71.267H61.6576Z" fill="white"/>
<path d="M130.282 27.19C129.269 27.19 128.395 27 127.66 26.62C126.925 26.2273 126.279 25.6827 125.722 24.986L126.691 24.036C127.134 24.6567 127.647 25.119 128.23 25.423C128.825 25.727 129.528 25.879 130.339 25.879C131.175 25.879 131.853 25.689 132.372 25.309C132.891 24.929 133.151 24.4033 133.151 23.732C133.151 23.2127 133.031 22.7883 132.79 22.459C132.549 22.117 132.233 21.8447 131.84 21.642C131.46 21.4267 131.036 21.2367 130.567 21.072C130.098 20.9073 129.63 20.7363 129.161 20.559C128.705 20.369 128.281 20.1347 127.888 19.856C127.495 19.5773 127.179 19.2227 126.938 18.792C126.71 18.3613 126.596 17.8103 126.596 17.139C126.596 16.4297 126.767 15.8217 127.109 15.315C127.451 14.8083 127.92 14.422 128.515 14.156C129.11 13.8773 129.788 13.738 130.548 13.738C131.397 13.738 132.15 13.9027 132.809 14.232C133.48 14.5613 134.038 15.0047 134.481 15.562L133.531 16.512C133.126 16.0307 132.682 15.6633 132.201 15.41C131.72 15.1567 131.156 15.03 130.51 15.03C129.75 15.03 129.142 15.2073 128.686 15.562C128.23 15.9167 128.002 16.4107 128.002 17.044C128.002 17.538 128.116 17.937 128.344 18.241C128.585 18.545 128.901 18.7983 129.294 19.001C129.687 19.2037 130.111 19.3873 130.567 19.552C131.036 19.704 131.504 19.875 131.973 20.065C132.442 20.255 132.866 20.4957 133.246 20.787C133.639 21.0783 133.955 21.452 134.196 21.908C134.437 22.3513 134.557 22.9213 134.557 23.618C134.557 24.7453 134.171 25.6257 133.398 26.259C132.638 26.8797 131.599 27.19 130.282 27.19ZM140.75 27.19C139.888 27.19 139.103 26.981 138.394 26.563C137.697 26.145 137.14 25.5813 136.722 24.872C136.316 24.1627 136.114 23.371 136.114 22.497C136.114 21.6357 136.316 20.8567 136.722 20.16C137.14 19.4633 137.697 18.9123 138.394 18.507C139.103 18.089 139.888 17.88 140.75 17.88C141.624 17.88 142.409 18.0827 143.106 18.488C143.802 18.8933 144.353 19.4507 144.759 20.16C145.177 20.8567 145.386 21.6357 145.386 22.497C145.386 23.3837 145.177 24.1817 144.759 24.891C144.353 25.5877 143.802 26.145 143.106 26.563C142.409 26.981 141.624 27.19 140.75 27.19ZM140.75 25.898C141.383 25.898 141.94 25.7523 142.422 25.461C142.916 25.1697 143.302 24.7643 143.581 24.245C143.872 23.7257 144.018 23.143 144.018 22.497C144.018 21.851 143.872 21.281 143.581 20.787C143.302 20.2803 142.916 19.8813 142.422 19.59C141.94 19.2987 141.383 19.153 140.75 19.153C140.129 19.153 139.572 19.2987 139.078 19.59C138.584 19.8813 138.197 20.2803 137.919 20.787C137.64 21.281 137.501 21.851 137.501 22.497C137.501 23.1557 137.64 23.7447 137.919 24.264C138.197 24.7707 138.584 25.1697 139.078 25.461C139.572 25.7523 140.129 25.898 140.75 25.898ZM147.501 27V13.548H148.831V27H147.501ZM155.062 27.19C154.34 27.19 153.694 27.0253 153.124 26.696C152.554 26.354 152.104 25.8917 151.775 25.309C151.458 24.7263 151.3 24.0423 151.3 23.257V18.07H152.649V23.2C152.649 23.7447 152.744 24.2197 152.934 24.625C153.136 25.0303 153.421 25.347 153.789 25.575C154.156 25.803 154.58 25.917 155.062 25.917C155.809 25.917 156.398 25.67 156.829 25.176C157.272 24.682 157.494 24.0233 157.494 23.2V18.07H158.824V23.257C158.824 24.0297 158.665 24.7137 158.349 25.309C158.032 25.9043 157.589 26.3667 157.019 26.696C156.449 27.0253 155.796 27.19 155.062 27.19ZM162.693 27V14.308H164.023V27H162.693ZM160.432 19.267V18.07H166.265V19.267H160.432ZM168.097 27V18.07H169.446V27H168.097ZM168.762 16.132C168.509 16.132 168.293 16.0433 168.116 15.866C167.939 15.676 167.85 15.4543 167.85 15.201C167.85 14.935 167.939 14.7133 168.116 14.536C168.293 14.3587 168.509 14.27 168.762 14.27C169.041 14.27 169.262 14.3587 169.427 14.536C169.604 14.7133 169.693 14.935 169.693 15.201C169.693 15.4543 169.604 15.676 169.427 15.866C169.262 16.0433 169.041 16.132 168.762 16.132ZM176.189 27.19C175.328 27.19 174.542 26.981 173.833 26.563C173.136 26.145 172.579 25.5813 172.161 24.872C171.756 24.1627 171.553 23.371 171.553 22.497C171.553 21.6357 171.756 20.8567 172.161 20.16C172.579 19.4633 173.136 18.9123 173.833 18.507C174.542 18.089 175.328 17.88 176.189 17.88C177.063 17.88 177.848 18.0827 178.545 18.488C179.242 18.8933 179.793 19.4507 180.198 20.16C180.616 20.8567 180.825 21.6357 180.825 22.497C180.825 23.3837 180.616 24.1817 180.198 24.891C179.793 25.5877 179.242 26.145 178.545 26.563C177.848 26.981 177.063 27.19 176.189 27.19ZM176.189 25.898C176.822 25.898 177.38 25.7523 177.861 25.461C178.355 25.1697 178.741 24.7643 179.02 24.245C179.311 23.7257 179.457 23.143 179.457 22.497C179.457 21.851 179.311 21.281 179.02 20.787C178.741 20.2803 178.355 19.8813 177.861 19.59C177.38 19.2987 176.822 19.153 176.189 19.153C175.568 19.153 175.011 19.2987 174.517 19.59C174.023 19.8813 173.637 20.2803 173.358 20.787C173.079 21.281 172.94 21.851 172.94 22.497C172.94 23.1557 173.079 23.7447 173.358 24.264C173.637 24.7707 174.023 25.1697 174.517 25.461C175.011 25.7523 175.568 25.898 176.189 25.898ZM189.439 27V21.756C189.439 20.9707 189.204 20.3373 188.736 19.856C188.28 19.362 187.672 19.115 186.912 19.115C186.392 19.115 185.936 19.229 185.544 19.457C185.151 19.685 184.841 19.9953 184.613 20.388C184.385 20.7807 184.271 21.2303 184.271 21.737L183.663 21.395C183.663 20.7237 183.821 20.122 184.138 19.59C184.454 19.058 184.879 18.64 185.411 18.336C185.955 18.032 186.576 17.88 187.273 17.88C187.957 17.88 188.565 18.0447 189.097 18.374C189.629 18.7033 190.04 19.1467 190.332 19.704C190.636 20.2613 190.788 20.8693 190.788 21.528V27H189.439ZM182.941 27V18.07H184.271V27H182.941Z" fill="white"/>
<path d="M137.959 324L133.741 310.928H135.128L138.681 322.176H138.263L141.778 310.928H142.823L146.357 322.176H145.92L149.473 310.928H150.879L146.642 324H145.616L142.101 312.771H142.5L138.985 324H137.959ZM155.351 324.19C154.502 324.19 153.742 323.987 153.071 323.582C152.4 323.164 151.868 322.607 151.475 321.91C151.095 321.213 150.905 320.428 150.905 319.554C150.905 318.667 151.095 317.876 151.475 317.179C151.868 316.47 152.4 315.912 153.071 315.507C153.742 315.089 154.496 314.88 155.332 314.88C156.016 314.88 156.624 315.019 157.156 315.298C157.701 315.564 158.138 315.944 158.467 316.438C158.809 316.919 159.018 317.483 159.094 318.129V320.922C159.018 321.568 158.809 322.138 158.467 322.632C158.138 323.126 157.701 323.512 157.156 323.791C156.624 324.057 156.022 324.19 155.351 324.19ZM155.56 322.917C156.485 322.917 157.226 322.607 157.783 321.986C158.353 321.365 158.638 320.548 158.638 319.535C158.638 318.864 158.505 318.275 158.239 317.768C157.986 317.249 157.625 316.85 157.156 316.571C156.7 316.28 156.162 316.134 155.541 316.134C154.908 316.134 154.344 316.28 153.85 316.571C153.369 316.862 152.982 317.268 152.691 317.787C152.412 318.294 152.273 318.876 152.273 319.535C152.273 320.194 152.412 320.776 152.691 321.283C152.982 321.79 153.375 322.189 153.869 322.48C154.363 322.771 154.927 322.917 155.56 322.917ZM158.562 324V321.606L158.828 319.402L158.562 317.255V315.07H159.892V324H158.562ZM166.465 324.19C165.617 324.19 164.857 323.987 164.185 323.582C163.514 323.164 162.982 322.607 162.589 321.91C162.209 321.213 162.019 320.428 162.019 319.554C162.019 318.667 162.209 317.876 162.589 317.179C162.982 316.47 163.514 315.912 164.185 315.507C164.857 315.089 165.61 314.88 166.446 314.88C167.13 314.88 167.738 315.019 168.27 315.298C168.815 315.564 169.252 315.944 169.581 316.438C169.923 316.919 170.132 317.483 170.208 318.129V320.922C170.132 321.568 169.923 322.138 169.581 322.632C169.252 323.126 168.815 323.512 168.27 323.791C167.738 324.057 167.137 324.19 166.465 324.19ZM166.674 322.917C167.599 322.917 168.34 322.607 168.897 321.986C169.467 321.365 169.752 320.548 169.752 319.535C169.752 318.864 169.619 318.275 169.353 317.768C169.1 317.249 168.739 316.85 168.27 316.571C167.814 316.28 167.276 316.134 166.655 316.134C166.022 316.134 165.458 316.28 164.964 316.571C164.483 316.862 164.097 317.268 163.805 317.787C163.527 318.294 163.387 318.876 163.387 319.535C163.387 320.194 163.527 320.776 163.805 321.283C164.097 321.79 164.489 322.189 164.983 322.48C165.477 322.771 166.041 322.917 166.674 322.917ZM169.676 324V321.606L169.942 319.402L169.676 317.255V315.07H171.006V324H169.676ZM177.636 324.19C176.623 324.19 175.749 324 175.014 323.62C174.28 323.227 173.634 322.683 173.076 321.986L174.045 321.036C174.489 321.657 175.002 322.119 175.584 322.423C176.18 322.727 176.883 322.879 177.693 322.879C178.529 322.879 179.207 322.689 179.726 322.309C180.246 321.929 180.505 321.403 180.505 320.732C180.505 320.213 180.385 319.788 180.144 319.459C179.904 319.117 179.587 318.845 179.194 318.642C178.814 318.427 178.39 318.237 177.921 318.072C177.453 317.907 176.984 317.736 176.515 317.559C176.059 317.369 175.635 317.135 175.242 316.856C174.85 316.577 174.533 316.223 174.292 315.792C174.064 315.361 173.95 314.81 173.95 314.139C173.95 313.43 174.121 312.822 174.463 312.315C174.805 311.808 175.274 311.422 175.869 311.156C176.465 310.877 177.142 310.738 177.902 310.738C178.751 310.738 179.505 310.903 180.163 311.232C180.835 311.561 181.392 312.005 181.835 312.562L180.885 313.512C180.48 313.031 180.037 312.663 179.555 312.41C179.074 312.157 178.51 312.03 177.864 312.03C177.104 312.03 176.496 312.207 176.04 312.562C175.584 312.917 175.356 313.411 175.356 314.044C175.356 314.538 175.47 314.937 175.698 315.241C175.939 315.545 176.256 315.798 176.648 316.001C177.041 316.204 177.465 316.387 177.921 316.552C178.39 316.704 178.859 316.875 179.327 317.065C179.796 317.255 180.22 317.496 180.6 317.787C180.993 318.078 181.31 318.452 181.55 318.908C181.791 319.351 181.911 319.921 181.911 320.618C181.911 321.745 181.525 322.626 180.752 323.259C179.992 323.88 178.954 324.19 177.636 324.19Z" fill="white"/>
<path d="M41.956 273L34.812 266.179L41.804 259.928H43.666L36.218 266.559V265.761L43.856 273H41.956ZM33.672 273V259.928H35.059V273H33.672ZM49.3374 267.604L44.1504 259.928H45.7844L50.0974 266.369H49.4134L53.7644 259.928H55.3414L50.1164 267.604H49.3374ZM49.0524 273V266.597H50.4584V273H49.0524ZM60.3459 273V260.289H61.7519V273H60.3459ZM55.7479 261.201V259.928H66.3499V261.201H55.7479Z" fill="white"/>
<path d="M252.959 79L248.741 65.928H250.128L253.681 77.176H253.263L256.778 65.928H257.823L261.357 77.176H260.92L264.473 65.928H265.879L261.642 79H260.616L257.101 67.771H257.5L253.985 79H252.959ZM270.598 79.19C269.699 79.19 268.894 78.9873 268.185 78.582C267.476 78.1767 266.912 77.6193 266.494 76.91C266.089 76.2007 265.886 75.4027 265.886 74.516C265.886 73.642 266.089 72.8567 266.494 72.16C266.899 71.4507 267.45 70.8933 268.147 70.488C268.844 70.0827 269.623 69.88 270.484 69.88C271.295 69.88 272.01 70.0637 272.631 70.431C273.264 70.7983 273.758 71.3113 274.113 71.97C274.48 72.616 274.664 73.3633 274.664 74.212C274.664 74.3133 274.658 74.4337 274.645 74.573C274.632 74.6997 274.607 74.8517 274.569 75.029H266.836V73.889H273.847L273.372 74.307C273.385 73.6483 273.271 73.0847 273.03 72.616C272.802 72.1347 272.466 71.7673 272.023 71.514C271.592 71.248 271.067 71.115 270.446 71.115C269.8 71.115 269.236 71.2543 268.755 71.533C268.274 71.8117 267.894 72.2043 267.615 72.711C267.349 73.205 267.216 73.794 267.216 74.478C267.216 75.162 267.355 75.7637 267.634 76.283C267.925 76.8023 268.324 77.2077 268.831 77.499C269.35 77.7903 269.946 77.936 270.617 77.936C271.162 77.936 271.662 77.841 272.118 77.651C272.574 77.4483 272.96 77.1507 273.277 76.758L274.132 77.632C273.714 78.126 273.195 78.5123 272.574 78.791C271.966 79.057 271.307 79.19 270.598 79.19ZM281.316 79.19C280.632 79.19 280.017 79.0507 279.473 78.772C278.928 78.4933 278.478 78.1133 278.124 77.632C277.782 77.138 277.573 76.568 277.497 75.922V73.129C277.573 72.4703 277.788 71.9003 278.143 71.419C278.497 70.925 278.947 70.545 279.492 70.279C280.049 70.013 280.657 69.88 281.316 69.88C282.139 69.88 282.88 70.089 283.539 70.507C284.197 70.9123 284.717 71.4697 285.097 72.179C285.489 72.8757 285.686 73.6673 285.686 74.554C285.686 75.428 285.496 76.2133 285.116 76.91C284.736 77.6067 284.21 78.164 283.539 78.582C282.88 78.9873 282.139 79.19 281.316 79.19ZM276.699 79V65.548H278.029V72.255L277.763 74.402L278.029 76.606V79H276.699ZM281.088 77.917C281.721 77.917 282.278 77.7777 282.76 77.499C283.241 77.2077 283.615 76.8087 283.881 76.302C284.159 75.7827 284.299 75.1937 284.299 74.535C284.299 73.8637 284.159 73.2747 283.881 72.768C283.615 72.2613 283.241 71.8623 282.76 71.571C282.278 71.2797 281.727 71.134 281.107 71.134C280.486 71.134 279.935 71.2797 279.454 71.571C278.985 71.8623 278.618 72.2613 278.352 72.768C278.086 73.2747 277.953 73.8637 277.953 74.535C277.953 75.1937 278.086 75.7827 278.352 76.302C278.618 76.8087 278.985 77.2077 279.454 77.499C279.922 77.7777 280.467 77.917 281.088 77.917ZM291.176 79.19C290.34 79.19 289.574 79.0253 288.877 78.696C288.193 78.3667 287.617 77.8917 287.148 77.271L288.079 76.34C288.396 76.8213 288.826 77.2013 289.371 77.48C289.916 77.746 290.511 77.879 291.157 77.879C291.79 77.879 292.335 77.7587 292.791 77.518C293.26 77.2773 293.621 76.9417 293.874 76.511C294.14 76.0677 294.273 75.5547 294.273 74.972C294.273 74.3767 294.14 73.8637 293.874 73.433C293.621 73.0023 293.253 72.6667 292.772 72.426C292.303 72.1853 291.74 72.065 291.081 72.065C290.866 72.065 290.644 72.0777 290.416 72.103C290.201 72.1283 289.985 72.1727 289.77 72.236L290.302 71.457C290.517 71.343 290.752 71.2543 291.005 71.191C291.258 71.1277 291.537 71.096 291.841 71.096C292.563 71.096 293.215 71.267 293.798 71.609C294.381 71.9383 294.837 72.4007 295.166 72.996C295.508 73.5787 295.679 74.2563 295.679 75.029C295.679 75.8523 295.489 76.5743 295.109 77.195C294.729 77.8157 294.197 78.3033 293.513 78.658C292.842 79.0127 292.063 79.19 291.176 79.19ZM289.77 72.236V71.381L293.912 66.726L295.527 66.783L291.309 71.495L289.77 72.236ZM287.718 67.163V65.928H295.527V66.783L294.33 67.163H287.718Z" fill="white"/>
<path d="M253.282 273.19C252.269 273.19 251.395 273 250.66 272.62C249.925 272.227 249.279 271.683 248.722 270.986L249.691 270.036C250.134 270.657 250.647 271.119 251.23 271.423C251.825 271.727 252.528 271.879 253.339 271.879C254.175 271.879 254.853 271.689 255.372 271.309C255.891 270.929 256.151 270.403 256.151 269.732C256.151 269.213 256.031 268.788 255.79 268.459C255.549 268.117 255.233 267.845 254.84 267.642C254.46 267.427 254.036 267.237 253.567 267.072C253.098 266.907 252.63 266.736 252.161 266.559C251.705 266.369 251.281 266.135 250.888 265.856C250.495 265.577 250.179 265.223 249.938 264.792C249.71 264.361 249.596 263.81 249.596 263.139C249.596 262.43 249.767 261.822 250.109 261.315C250.451 260.808 250.92 260.422 251.515 260.156C252.11 259.877 252.788 259.738 253.548 259.738C254.397 259.738 255.15 259.903 255.809 260.232C256.48 260.561 257.038 261.005 257.481 261.562L256.531 262.512C256.126 262.031 255.682 261.663 255.201 261.41C254.72 261.157 254.156 261.03 253.51 261.03C252.75 261.03 252.142 261.207 251.686 261.562C251.23 261.917 251.002 262.411 251.002 263.044C251.002 263.538 251.116 263.937 251.344 264.241C251.585 264.545 251.901 264.798 252.294 265.001C252.687 265.204 253.111 265.387 253.567 265.552C254.036 265.704 254.504 265.875 254.973 266.065C255.442 266.255 255.866 266.496 256.246 266.787C256.639 267.078 256.955 267.452 257.196 267.908C257.437 268.351 257.557 268.921 257.557 269.618C257.557 270.745 257.171 271.626 256.398 272.259C255.638 272.88 254.599 273.19 253.282 273.19ZM263.826 273.19C262.926 273.19 262.122 272.987 261.413 272.582C260.703 272.177 260.14 271.619 259.722 270.91C259.316 270.201 259.114 269.403 259.114 268.516C259.114 267.642 259.316 266.857 259.722 266.16C260.127 265.451 260.678 264.893 261.375 264.488C262.071 264.083 262.85 263.88 263.712 263.88C264.522 263.88 265.238 264.064 265.859 264.431C266.492 264.798 266.986 265.311 267.341 265.97C267.708 266.616 267.892 267.363 267.892 268.212C267.892 268.313 267.885 268.434 267.873 268.573C267.86 268.7 267.835 268.852 267.797 269.029H260.064V267.889H267.075L266.6 268.307C266.612 267.648 266.498 267.085 266.258 266.616C266.03 266.135 265.694 265.767 265.251 265.514C264.82 265.248 264.294 265.115 263.674 265.115C263.028 265.115 262.464 265.254 261.983 265.533C261.501 265.812 261.121 266.204 260.843 266.711C260.577 267.205 260.444 267.794 260.444 268.478C260.444 269.162 260.583 269.764 260.862 270.283C261.153 270.802 261.552 271.208 262.059 271.499C262.578 271.79 263.173 271.936 263.845 271.936C264.389 271.936 264.89 271.841 265.346 271.651C265.802 271.448 266.188 271.151 266.505 270.758L267.36 271.632C266.942 272.126 266.422 272.512 265.802 272.791C265.194 273.057 264.535 273.19 263.826 273.19ZM273.992 273.19C273.118 273.19 272.326 272.987 271.617 272.582C270.92 272.164 270.363 271.6 269.945 270.891C269.54 270.182 269.337 269.39 269.337 268.516C269.337 267.642 269.54 266.857 269.945 266.16C270.363 265.451 270.92 264.893 271.617 264.488C272.326 264.083 273.118 263.88 273.992 263.88C274.663 263.88 275.29 264.007 275.873 264.26C276.456 264.513 276.95 264.868 277.355 265.324L276.481 266.217C276.177 265.875 275.81 265.615 275.379 265.438C274.948 265.248 274.486 265.153 273.992 265.153C273.359 265.153 272.795 265.299 272.301 265.59C271.807 265.881 271.421 266.28 271.142 266.787C270.863 267.281 270.724 267.857 270.724 268.516C270.724 269.162 270.863 269.745 271.142 270.264C271.421 270.771 271.807 271.17 272.301 271.461C272.795 271.752 273.359 271.898 273.992 271.898C274.499 271.898 274.967 271.809 275.398 271.632C275.829 271.442 276.196 271.176 276.5 270.834L277.393 271.727C276.975 272.196 276.468 272.557 275.873 272.81C275.29 273.063 274.663 273.19 273.992 273.19ZM282.793 273.19C282.071 273.19 281.425 273.025 280.855 272.696C280.285 272.354 279.835 271.892 279.506 271.309C279.189 270.726 279.031 270.042 279.031 269.257V264.07H280.38V269.2C280.38 269.745 280.475 270.22 280.665 270.625C280.868 271.03 281.153 271.347 281.52 271.575C281.887 271.803 282.312 271.917 282.793 271.917C283.54 271.917 284.129 271.67 284.56 271.176C285.003 270.682 285.225 270.023 285.225 269.2V264.07H286.555V269.257C286.555 270.03 286.397 270.714 286.08 271.309C285.763 271.904 285.32 272.367 284.75 272.696C284.18 273.025 283.528 273.19 282.793 273.19ZM289.037 273V264.07H290.367V273H289.037ZM290.367 267.794L289.816 267.547C289.816 266.42 290.089 265.527 290.633 264.868C291.191 264.209 291.951 263.88 292.913 263.88C293.357 263.88 293.762 263.962 294.129 264.127C294.497 264.279 294.839 264.526 295.155 264.868L294.281 265.799C294.066 265.558 293.825 265.387 293.559 265.286C293.306 265.185 293.015 265.134 292.685 265.134C292.001 265.134 291.444 265.362 291.013 265.818C290.583 266.261 290.367 266.92 290.367 267.794ZM296.571 273V264.07H297.92V273H296.571ZM297.236 262.132C296.982 262.132 296.767 262.043 296.59 261.866C296.412 261.676 296.324 261.454 296.324 261.201C296.324 260.935 296.412 260.713 296.59 260.536C296.767 260.359 296.982 260.27 297.236 260.27C297.514 260.27 297.736 260.359 297.901 260.536C298.078 260.713 298.167 260.935 298.167 261.201C298.167 261.454 298.078 261.676 297.901 261.866C297.736 262.043 297.514 262.132 297.236 262.132ZM302.003 273V260.308H303.333V273H302.003ZM299.742 265.267V264.07H305.575V265.267H299.742ZM310.39 273.038L306.476 264.07H307.939L311.093 271.556H310.542L313.867 264.07H315.349L311.15 273.038H310.39ZM307.958 276.762L310.409 271.689L311.15 273.038L309.421 276.762H307.958Z" fill="white"/>
<defs>
<linearGradient id="paint0_linear_1172_3233" x1="232.914" y1="79.2847" x2="69.7112" y2="247.71" gradientUnits="userSpaceOnUse">
<stop stop-color="#7F4EFF"/>
<stop offset="1" stop-color="#00A6FF"/>
</linearGradient>
</defs>
</svg>
