<svg width="304" height="329" viewBox="0 0 304 329" fill="none" xmlns="http://www.w3.org/2000/svg">
<path d="M265.773 152.558C265.873 154.2 265.941 155.852 265.975 157.511L264.975 157.532C264.992 158.352 265 159.175 265 160C265 160.825 264.992 161.648 264.975 162.468L265.975 162.489C265.941 164.148 265.873 165.8 265.773 167.442L264.775 167.381C264.674 169.023 264.541 170.657 264.374 172.28L265.369 172.382C265.2 174.034 264.997 175.677 264.761 177.308L263.771 177.165C263.536 178.795 263.268 180.413 262.967 182.02L263.95 182.204C263.645 183.835 263.307 185.454 262.936 187.06L261.962 186.836C261.593 188.438 261.191 190.027 260.758 191.604L261.722 191.869C261.283 193.467 260.812 195.052 260.309 196.622L259.357 196.317C258.856 197.882 258.324 199.432 257.76 200.968L258.699 201.312C258.129 202.868 257.527 204.409 256.894 205.935L255.971 205.551C255.341 207.069 254.681 208.571 253.992 210.056L254.899 210.477C254.201 211.979 253.474 213.464 252.717 214.932L251.828 214.474C251.076 215.933 250.294 217.374 249.483 218.798L250.352 219.292C249.533 220.731 248.685 222.151 247.809 223.551L246.961 223.021C246.091 224.412 245.193 225.784 244.267 227.136L245.093 227.701C244.158 229.066 243.196 230.411 242.207 231.736L241.406 231.137C240.424 232.452 239.415 233.746 238.381 235.018L239.157 235.648C238.114 236.932 237.044 238.194 235.949 239.432L235.2 238.77C234.114 239.999 233.002 241.206 231.867 242.389L232.589 243.081C231.444 244.274 230.274 245.444 229.081 246.589L228.389 245.867C227.206 247.002 225.999 248.114 224.77 249.2L225.432 249.949C224.194 251.044 222.932 252.114 221.648 253.157L221.018 252.381C219.746 253.415 218.452 254.424 217.137 255.406L217.736 256.207C216.411 257.196 215.066 258.158 213.701 259.093L213.136 258.267C211.784 259.193 210.412 260.091 209.021 260.961L209.551 261.809C208.151 262.685 206.731 263.533 205.292 264.352L204.798 263.483C203.374 264.294 201.933 265.076 200.474 265.828L200.932 266.717C199.464 267.474 197.979 268.201 196.477 268.899L196.056 267.992C194.571 268.681 193.069 269.341 191.551 269.971L191.935 270.894C190.409 271.527 188.868 272.129 187.312 272.699L186.968 271.76C185.432 272.324 183.882 272.856 182.317 273.357L182.622 274.309C181.052 274.812 179.467 275.283 177.869 275.722L177.604 274.758C176.027 275.191 174.438 275.593 172.836 275.962L173.06 276.936C171.454 277.307 169.835 277.645 168.204 277.95L168.02 276.967C166.413 277.268 164.795 277.536 163.165 277.771L163.308 278.761C161.677 278.997 160.034 279.2 158.382 279.369L158.28 278.374C156.656 278.541 155.023 278.674 153.381 278.775L153.442 279.773C151.8 279.873 150.148 279.941 148.489 279.975L148.468 278.975C147.648 278.992 146.825 279 146 279C145.175 279 144.352 278.992 143.532 278.975L143.511 279.975C141.852 279.941 140.2 279.873 138.558 279.773L138.619 278.775C136.977 278.674 135.343 278.541 133.72 278.374L133.618 279.369C131.966 279.2 130.323 278.997 128.692 278.761L128.835 277.771C127.205 277.536 125.587 277.268 123.98 276.967L123.796 277.95C122.165 277.645 120.546 277.307 118.94 276.936L119.164 275.962C117.562 275.593 115.973 275.191 114.396 274.758L114.131 275.722C112.533 275.283 110.948 274.812 109.378 274.309L109.683 273.357C108.118 272.856 106.568 272.324 105.032 271.76L104.688 272.699C103.132 272.129 101.591 271.527 100.065 270.894L100.449 269.971C98.9309 269.341 97.4292 268.681 95.9441 267.992L95.523 268.899C94.0209 268.201 92.5356 267.474 91.0679 266.717L91.5263 265.828C90.0672 265.076 88.6256 264.294 87.2024 263.483L86.7076 264.352C85.2692 263.533 83.8494 262.685 82.4489 261.809L82.9793 260.961C81.5879 260.091 80.2159 259.193 78.8639 258.267L78.299 259.093C76.9336 258.158 75.5885 257.196 74.2645 256.207L74.8629 255.406C73.5482 254.424 72.2544 253.415 70.9824 252.381L70.3516 253.157C69.068 252.114 67.8065 251.044 66.5677 249.949L67.2299 249.2C66.0009 248.114 64.7944 247.002 63.6114 245.867L62.919 246.589C61.7259 245.444 60.5564 244.274 59.4114 243.081L60.1329 242.389C58.9975 241.206 57.8863 239.999 56.8002 238.77L56.0508 239.432C54.9561 238.194 53.8865 236.932 52.8429 235.648L53.6188 235.018C52.5846 233.746 51.5762 232.452 50.5943 231.137L49.7931 231.736C48.8043 230.411 47.8421 229.066 46.9075 227.701L47.7327 227.136C46.8072 225.784 45.9089 224.412 45.0386 223.021L44.1908 223.551C43.3147 222.151 42.4668 220.731 41.6478 219.292L42.5168 218.798C41.7063 217.374 40.9244 215.933 40.1718 214.474L39.2831 214.932C38.5261 213.464 37.7985 211.979 37.1011 210.477L38.0081 210.056C37.3185 208.571 36.6587 207.069 36.0294 205.551L35.1057 205.935C34.4732 204.409 33.8713 202.868 33.3007 201.312L34.2396 200.968C33.6765 199.432 33.1441 197.882 32.6433 196.317L31.6909 196.622C31.1881 195.052 30.7168 193.467 30.2777 191.869L31.242 191.604C30.8088 190.027 30.4072 188.438 30.038 186.836L29.0635 187.06C28.6933 185.454 28.3552 183.835 28.0502 182.204L29.0331 182.02C28.7325 180.413 28.4641 178.795 28.2288 177.165L27.239 177.308C27.0033 175.677 26.8004 174.034 26.631 172.382L27.6258 172.28C27.4594 170.656 27.3256 169.023 27.2251 167.381L26.227 167.442C26.1265 165.8 26.0591 164.148 26.0253 162.489L27.0251 162.468C27.0084 161.648 27 160.825 27 160C27 159.175 27.0084 158.352 27.0251 157.532L26.0253 157.511C26.0591 155.852 26.1265 154.2 26.227 152.558L27.2252 152.619C27.3256 150.977 27.4594 149.343 27.6258 147.72L26.631 147.618C26.8004 145.966 27.0033 144.323 27.239 142.692L28.2288 142.835C28.4641 141.205 28.7325 139.587 29.0331 137.98L28.0502 137.796C28.3552 136.165 28.6933 134.546 29.0635 132.94L30.038 133.164C30.4072 131.562 30.8088 129.973 31.242 128.396L30.2777 128.131C30.7168 126.533 31.1881 124.948 31.6909 123.378L32.6433 123.683C33.1441 122.118 33.6765 120.568 34.2396 119.032L33.3007 118.688C33.8713 117.132 34.4732 115.591 35.1057 114.065L36.0294 114.449C36.6587 112.931 37.3185 111.429 38.0081 109.944L37.1011 109.523C37.7985 108.021 38.5261 106.536 39.2831 105.068L40.1718 105.526C40.9244 104.067 41.7063 102.626 42.5168 101.202L41.6478 100.708C42.4668 99.2692 43.3147 97.8494 44.1908 96.4489L45.0386 96.9793C45.9089 95.5879 46.8072 94.2159 47.7327 92.8639L46.9075 92.299C47.8421 90.9336 48.8043 89.5885 49.7931 88.2645L50.5943 88.8629C51.5762 87.5482 52.5846 86.2544 53.6188 84.9824L52.8429 84.3516C53.8865 83.0681 54.9561 81.8065 56.0508 80.5677L56.8002 81.2299C57.8863 80.0009 58.9975 78.7944 60.1329 77.6114L59.4114 76.919C60.5564 75.7259 61.7259 74.5565 62.919 73.4114L63.6114 74.1329C64.7944 72.9975 66.0009 71.8863 67.2299 70.8002L66.5677 70.0508C67.8065 68.9561 69.068 67.8865 70.3516 66.8429L70.9824 67.6188C72.2544 66.5846 73.5482 65.5762 74.8629 64.5943L74.2645 63.7931C75.5885 62.8043 76.9336 61.8421 78.299 60.9075L78.8639 61.7327C80.2159 60.8072 81.5879 59.9089 82.9793 59.0386L82.4489 58.1908C83.8494 57.3147 85.2692 56.4668 86.7075 55.6478L87.2024 56.5168C88.6256 55.7063 90.0672 54.9244 91.5263 54.1718L91.0679 53.2831C92.5356 52.5261 94.0209 51.7985 95.523 51.1011L95.9441 52.0081C97.4292 51.3185 98.931 50.6587 100.449 50.0294L100.065 49.1057C101.591 48.4732 103.132 47.8713 104.688 47.3007L105.032 48.2396C106.568 47.6765 108.118 47.1441 109.683 46.6433L109.378 45.6909C110.948 45.1881 112.533 44.7168 114.131 44.2777L114.396 45.242C115.973 44.8088 117.562 44.4072 119.164 44.038L118.94 43.0635C120.546 42.6933 122.165 42.3552 123.796 42.0502L123.98 43.0331C125.587 42.7325 127.205 42.4641 128.835 42.2288L128.692 41.239C130.323 41.0033 131.966 40.8004 133.618 40.631L133.72 41.6258C135.344 41.4594 136.977 41.3256 138.619 41.2251L138.558 40.227C140.2 40.1265 141.852 40.0591 143.511 40.0253L143.532 41.0251C144.352 41.0084 145.175 41 146 41C146.825 41 147.648 41.0084 148.468 41.0251L148.489 40.0253C150.148 40.0591 151.8 40.1265 153.442 40.227L153.381 41.2252C155.023 41.3256 156.657 41.4594 158.28 41.6258L158.382 40.631C160.034 40.8004 161.677 41.0033 163.308 41.239L163.165 42.2288C164.795 42.4641 166.413 42.7325 168.02 43.0331L168.204 42.0502C169.835 42.3552 171.454 42.6933 173.06 43.0635L172.836 44.038C174.438 44.4072 176.027 44.8088 177.604 45.242L177.869 44.2777C179.467 44.7168 181.052 45.1881 182.622 45.6909L182.317 46.6433C183.882 47.1441 185.432 47.6765 186.968 48.2396L187.312 47.3007C188.868 47.8713 190.409 48.4732 191.935 49.1057L191.551 50.0294C193.069 50.6587 194.571 51.3185 196.056 52.0081L196.477 51.1011C197.979 51.7985 199.464 52.5261 200.932 53.2831L200.474 54.1718C201.933 54.9244 203.374 55.7063 204.798 56.5168L205.292 55.6478C206.731 56.4668 208.151 57.3147 209.551 58.1908L209.021 59.0386C210.412 59.9089 211.784 60.8072 213.136 61.7327L213.701 60.9075C215.066 61.8421 216.411 62.8043 217.736 63.7931L217.137 64.5943C218.452 65.5762 219.746 66.5846 221.018 67.6188L221.648 66.8429C222.932 67.8865 224.194 68.9561 225.432 70.0508L224.77 70.8002C225.999 71.8863 227.206 72.9975 228.389 74.1329L229.081 73.4114C230.274 74.5564 231.444 75.7259 232.589 76.919L231.867 77.6114C233.002 78.7944 234.114 80.0009 235.2 81.2299L235.949 80.5677C237.044 81.8065 238.114 83.068 239.157 84.3516L238.381 84.9824C239.415 86.2544 240.424 87.5482 241.406 88.8629L242.207 88.2645C243.196 89.5885 244.158 90.9336 245.093 92.299L244.267 92.8639C245.193 94.2159 246.091 95.5879 246.961 96.9793L247.809 96.4489C248.685 97.8494 249.533 99.2692 250.352 100.708L249.483 101.202C250.294 102.626 251.076 104.067 251.828 105.526L252.717 105.068C253.474 106.536 254.201 108.021 254.899 109.523L253.992 109.944C254.681 111.429 255.341 112.931 255.971 114.449L256.894 114.065C257.527 115.591 258.129 117.132 258.699 118.688L257.76 119.032C258.324 120.568 258.856 122.118 259.357 123.683L260.309 123.378C260.812 124.948 261.283 126.533 261.722 128.131L260.758 128.396C261.191 129.973 261.593 131.562 261.962 133.164L262.936 132.94C263.307 134.546 263.645 136.165 263.95 137.796L262.967 137.98C263.268 139.587 263.536 141.205 263.771 142.835L264.761 142.692C264.997 144.323 265.2 145.966 265.369 147.618L264.374 147.72C264.541 149.344 264.674 150.977 264.775 152.619L265.773 152.558Z" stroke="url(#paint0_linear_1172_3233)" stroke-width="2" stroke-dasharray="5 5"/>
<circle cx="146" cy="40" r="8" fill="#9318FF"/>
<circle cx="146" cy="280" r="8" fill="#2E27FF"/>
<circle cx="244" cy="91" r="8" fill="#9318FF"/>
<circle cx="244" cy="229" r="8" fill="#9318FF"/>
<circle cx="48" cy="91" r="8" fill="#2E27FF"/>
<circle cx="48" cy="229" r="8" fill="#4583FF"/>
<path d="M4.73244 66L0.514438 52.928H1.90144L5.45444 64.176H5.03644L8.55144 52.928H9.59644L13.1304 64.176H12.6934L16.2464 52.928H17.6524L13.4154 66H12.3894L8.87444 54.771H9.27344L5.75844 66H4.73244ZM22.1244 66.19C21.2757 66.19 20.5157 65.9873 19.8444 65.582C19.1731 65.164 18.6411 64.6067 18.2484 63.91C17.8684 63.2133 17.6784 62.428 17.6784 61.554C17.6784 60.6673 17.8684 59.8757 18.2484 59.179C18.6411 58.4697 19.1731 57.9123 19.8444 57.507C20.5157 57.089 21.2694 56.88 22.1054 56.88C22.7894 56.88 23.3974 57.0193 23.9294 57.298C24.4741 57.564 24.9111 57.944 25.2404 58.438C25.5824 58.9193 25.7914 59.483 25.8674 60.129V62.922C25.7914 63.568 25.5824 64.138 25.2404 64.632C24.9111 65.126 24.4741 65.5123 23.9294 65.791C23.3974 66.057 22.7957 66.19 22.1244 66.19ZM22.3334 64.917C23.2581 64.917 23.9991 64.6067 24.5564 63.986C25.1264 63.3653 25.4114 62.5483 25.4114 61.535C25.4114 60.8637 25.2784 60.2747 25.0124 59.768C24.7591 59.2487 24.3981 58.8497 23.9294 58.571C23.4734 58.2797 22.9351 58.134 22.3144 58.134C21.6811 58.134 21.1174 58.2797 20.6234 58.571C20.1421 58.8623 19.7557 59.2677 19.4644 59.787C19.1857 60.2937 19.0464 60.8763 19.0464 61.535C19.0464 62.1937 19.1857 62.7763 19.4644 63.283C19.7557 63.7897 20.1484 64.1887 20.6424 64.48C21.1364 64.7713 21.7001 64.917 22.3334 64.917ZM25.3354 66V63.606L25.6014 61.402L25.3354 59.255V57.07H26.6654V66H25.3354ZM29.3627 66V52.548H30.6927V66H29.3627ZM33.389 66V52.548H34.719V66H33.389ZM41.5384 66.19C40.6391 66.19 39.8347 65.9873 39.1254 65.582C38.4161 65.1767 37.8524 64.6193 37.4344 63.91C37.0291 63.2007 36.8264 62.4027 36.8264 61.516C36.8264 60.642 37.0291 59.8567 37.4344 59.16C37.8397 58.4507 38.3907 57.8933 39.0874 57.488C39.7841 57.0827 40.5631 56.88 41.4244 56.88C42.2351 56.88 42.9507 57.0637 43.5714 57.431C44.2047 57.7983 44.6987 58.3113 45.0534 58.97C45.4207 59.616 45.6044 60.3633 45.6044 61.212C45.6044 61.3133 45.5981 61.4337 45.5854 61.573C45.5727 61.6997 45.5474 61.8517 45.5094 62.029H37.7764V60.889H44.7874L44.3124 61.307C44.3251 60.6483 44.2111 60.0847 43.9704 59.616C43.7424 59.1347 43.4067 58.7673 42.9634 58.514C42.5327 58.248 42.0071 58.115 41.3864 58.115C40.7404 58.115 40.1767 58.2543 39.6954 58.533C39.2141 58.8117 38.8341 59.2043 38.5554 59.711C38.2894 60.205 38.1564 60.794 38.1564 61.478C38.1564 62.162 38.2957 62.7637 38.5744 63.283C38.8657 63.8023 39.2647 64.2077 39.7714 64.499C40.2907 64.7903 40.8861 64.936 41.5574 64.936C42.1021 64.936 42.6024 64.841 43.0584 64.651C43.5144 64.4483 43.9007 64.1507 44.2174 63.758L45.0724 64.632C44.6544 65.126 44.1351 65.5123 43.5144 65.791C42.9064 66.057 42.2477 66.19 41.5384 66.19ZM48.6921 66V53.308H50.0221V66H48.6921ZM46.4311 58.267V57.07H52.2641V58.267H46.4311Z" fill="white"/>
<path d="M118.282 19.19C117.269 19.19 116.395 19 115.66 18.62C114.925 18.2273 114.279 17.6827 113.722 16.986L114.691 16.036C115.134 16.6567 115.647 17.119 116.23 17.423C116.825 17.727 117.528 17.879 118.339 17.879C119.175 17.879 119.853 17.689 120.372 17.309C120.891 16.929 121.151 16.4033 121.151 15.732C121.151 15.2127 121.031 14.7883 120.79 14.459C120.549 14.117 120.233 13.8447 119.84 13.642C119.46 13.4267 119.036 13.2367 118.567 13.072C118.098 12.9073 117.63 12.7363 117.161 12.559C116.705 12.369 116.281 12.1347 115.888 11.856C115.495 11.5773 115.179 11.2227 114.938 10.792C114.71 10.3613 114.596 9.81033 114.596 9.139C114.596 8.42967 114.767 7.82167 115.109 7.315C115.451 6.80833 115.92 6.422 116.515 6.156C117.11 5.87733 117.788 5.738 118.548 5.738C119.397 5.738 120.15 5.90267 120.809 6.232C121.48 6.56133 122.038 7.00467 122.481 7.562L121.531 8.512C121.126 8.03067 120.682 7.66333 120.201 7.41C119.72 7.15667 119.156 7.03 118.51 7.03C117.75 7.03 117.142 7.20733 116.686 7.562C116.23 7.91667 116.002 8.41067 116.002 9.044C116.002 9.538 116.116 9.937 116.344 10.241C116.585 10.545 116.901 10.7983 117.294 11.001C117.687 11.2037 118.111 11.3873 118.567 11.552C119.036 11.704 119.504 11.875 119.973 12.065C120.442 12.255 120.866 12.4957 121.246 12.787C121.639 13.0783 121.955 13.452 122.196 13.908C122.437 14.3513 122.557 14.9213 122.557 15.618C122.557 16.7453 122.171 17.6257 121.398 18.259C120.638 18.8797 119.599 19.19 118.282 19.19ZM128.75 19.19C127.888 19.19 127.103 18.981 126.394 18.563C125.697 18.145 125.14 17.5813 124.722 16.872C124.316 16.1627 124.114 15.371 124.114 14.497C124.114 13.6357 124.316 12.8567 124.722 12.16C125.14 11.4633 125.697 10.9123 126.394 10.507C127.103 10.089 127.888 9.88 128.75 9.88C129.624 9.88 130.409 10.0827 131.106 10.488C131.802 10.8933 132.353 11.4507 132.759 12.16C133.177 12.8567 133.386 13.6357 133.386 14.497C133.386 15.3837 133.177 16.1817 132.759 16.891C132.353 17.5877 131.802 18.145 131.106 18.563C130.409 18.981 129.624 19.19 128.75 19.19ZM128.75 17.898C129.383 17.898 129.94 17.7523 130.422 17.461C130.916 17.1697 131.302 16.7643 131.581 16.245C131.872 15.7257 132.018 15.143 132.018 14.497C132.018 13.851 131.872 13.281 131.581 12.787C131.302 12.2803 130.916 11.8813 130.422 11.59C129.94 11.2987 129.383 11.153 128.75 11.153C128.129 11.153 127.572 11.2987 127.078 11.59C126.584 11.8813 126.197 12.2803 125.919 12.787C125.64 13.281 125.501 13.851 125.501 14.497C125.501 15.1557 125.64 15.7447 125.919 16.264C126.197 16.7707 126.584 17.1697 127.078 17.461C127.572 17.7523 128.129 17.898 128.75 17.898ZM135.501 19V5.548H136.831V19H135.501ZM143.062 19.19C142.34 19.19 141.694 19.0253 141.124 18.696C140.554 18.354 140.104 17.8917 139.775 17.309C139.458 16.7263 139.3 16.0423 139.3 15.257V10.07H140.649V15.2C140.649 15.7447 140.744 16.2197 140.934 16.625C141.136 17.0303 141.421 17.347 141.789 17.575C142.156 17.803 142.58 17.917 143.062 17.917C143.809 17.917 144.398 17.67 144.829 17.176C145.272 16.682 145.494 16.0233 145.494 15.2V10.07H146.824V15.257C146.824 16.0297 146.665 16.7137 146.349 17.309C146.032 17.9043 145.589 18.3667 145.019 18.696C144.449 19.0253 143.796 19.19 143.062 19.19ZM150.693 19V6.308H152.023V19H150.693ZM148.432 11.267V10.07H154.265V11.267H148.432ZM156.097 19V10.07H157.446V19H156.097ZM156.762 8.132C156.509 8.132 156.293 8.04333 156.116 7.866C155.939 7.676 155.85 7.45433 155.85 7.201C155.85 6.935 155.939 6.71333 156.116 6.536C156.293 6.35867 156.509 6.27 156.762 6.27C157.041 6.27 157.262 6.35867 157.427 6.536C157.604 6.71333 157.693 6.935 157.693 7.201C157.693 7.45433 157.604 7.676 157.427 7.866C157.262 8.04333 157.041 8.132 156.762 8.132ZM164.189 19.19C163.328 19.19 162.542 18.981 161.833 18.563C161.136 18.145 160.579 17.5813 160.161 16.872C159.756 16.1627 159.553 15.371 159.553 14.497C159.553 13.6357 159.756 12.8567 160.161 12.16C160.579 11.4633 161.136 10.9123 161.833 10.507C162.542 10.089 163.328 9.88 164.189 9.88C165.063 9.88 165.848 10.0827 166.545 10.488C167.242 10.8933 167.793 11.4507 168.198 12.16C168.616 12.8567 168.825 13.6357 168.825 14.497C168.825 15.3837 168.616 16.1817 168.198 16.891C167.793 17.5877 167.242 18.145 166.545 18.563C165.848 18.981 165.063 19.19 164.189 19.19ZM164.189 17.898C164.822 17.898 165.38 17.7523 165.861 17.461C166.355 17.1697 166.741 16.7643 167.02 16.245C167.311 15.7257 167.457 15.143 167.457 14.497C167.457 13.851 167.311 13.281 167.02 12.787C166.741 12.2803 166.355 11.8813 165.861 11.59C165.38 11.2987 164.822 11.153 164.189 11.153C163.568 11.153 163.011 11.2987 162.517 11.59C162.023 11.8813 161.637 12.2803 161.358 12.787C161.079 13.281 160.94 13.851 160.94 14.497C160.94 15.1557 161.079 15.7447 161.358 16.264C161.637 16.7707 162.023 17.1697 162.517 17.461C163.011 17.7523 163.568 17.898 164.189 17.898ZM177.439 19V13.756C177.439 12.9707 177.204 12.3373 176.736 11.856C176.28 11.362 175.672 11.115 174.912 11.115C174.392 11.115 173.936 11.229 173.544 11.457C173.151 11.685 172.841 11.9953 172.613 12.388C172.385 12.7807 172.271 13.2303 172.271 13.737L171.663 13.395C171.663 12.7237 171.821 12.122 172.138 11.59C172.454 11.058 172.879 10.64 173.411 10.336C173.955 10.032 174.576 9.88 175.273 9.88C175.957 9.88 176.565 10.0447 177.097 10.374C177.629 10.7033 178.04 11.1467 178.332 11.704C178.636 12.2613 178.788 12.8693 178.788 13.528V19H177.439ZM170.941 19V10.07H172.271V19H170.941Z" fill="white"/>
<path d="M125.959 315L121.741 301.928H123.128L126.681 313.176H126.263L129.778 301.928H130.823L134.357 313.176H133.92L137.473 301.928H138.879L134.642 315H133.616L130.101 303.771H130.5L126.985 315H125.959ZM143.351 315.19C142.502 315.19 141.742 314.987 141.071 314.582C140.4 314.164 139.868 313.607 139.475 312.91C139.095 312.213 138.905 311.428 138.905 310.554C138.905 309.667 139.095 308.876 139.475 308.179C139.868 307.47 140.4 306.912 141.071 306.507C141.742 306.089 142.496 305.88 143.332 305.88C144.016 305.88 144.624 306.019 145.156 306.298C145.701 306.564 146.138 306.944 146.467 307.438C146.809 307.919 147.018 308.483 147.094 309.129V311.922C147.018 312.568 146.809 313.138 146.467 313.632C146.138 314.126 145.701 314.512 145.156 314.791C144.624 315.057 144.022 315.19 143.351 315.19ZM143.56 313.917C144.485 313.917 145.226 313.607 145.783 312.986C146.353 312.365 146.638 311.548 146.638 310.535C146.638 309.864 146.505 309.275 146.239 308.768C145.986 308.249 145.625 307.85 145.156 307.571C144.7 307.28 144.162 307.134 143.541 307.134C142.908 307.134 142.344 307.28 141.85 307.571C141.369 307.862 140.982 308.268 140.691 308.787C140.412 309.294 140.273 309.876 140.273 310.535C140.273 311.194 140.412 311.776 140.691 312.283C140.982 312.79 141.375 313.189 141.869 313.48C142.363 313.771 142.927 313.917 143.56 313.917ZM146.562 315V312.606L146.828 310.402L146.562 308.255V306.07H147.892V315H146.562ZM154.465 315.19C153.617 315.19 152.857 314.987 152.185 314.582C151.514 314.164 150.982 313.607 150.589 312.91C150.209 312.213 150.019 311.428 150.019 310.554C150.019 309.667 150.209 308.876 150.589 308.179C150.982 307.47 151.514 306.912 152.185 306.507C152.857 306.089 153.61 305.88 154.446 305.88C155.13 305.88 155.738 306.019 156.27 306.298C156.815 306.564 157.252 306.944 157.581 307.438C157.923 307.919 158.132 308.483 158.208 309.129V311.922C158.132 312.568 157.923 313.138 157.581 313.632C157.252 314.126 156.815 314.512 156.27 314.791C155.738 315.057 155.137 315.19 154.465 315.19ZM154.674 313.917C155.599 313.917 156.34 313.607 156.897 312.986C157.467 312.365 157.752 311.548 157.752 310.535C157.752 309.864 157.619 309.275 157.353 308.768C157.1 308.249 156.739 307.85 156.27 307.571C155.814 307.28 155.276 307.134 154.655 307.134C154.022 307.134 153.458 307.28 152.964 307.571C152.483 307.862 152.097 308.268 151.805 308.787C151.527 309.294 151.387 309.876 151.387 310.535C151.387 311.194 151.527 311.776 151.805 312.283C152.097 312.79 152.489 313.189 152.983 313.48C153.477 313.771 154.041 313.917 154.674 313.917ZM157.676 315V312.606L157.942 310.402L157.676 308.255V306.07H159.006V315H157.676ZM165.636 315.19C164.623 315.19 163.749 315 163.014 314.62C162.28 314.227 161.634 313.683 161.076 312.986L162.045 312.036C162.489 312.657 163.002 313.119 163.584 313.423C164.18 313.727 164.883 313.879 165.693 313.879C166.529 313.879 167.207 313.689 167.726 313.309C168.246 312.929 168.505 312.403 168.505 311.732C168.505 311.213 168.385 310.788 168.144 310.459C167.904 310.117 167.587 309.845 167.194 309.642C166.814 309.427 166.39 309.237 165.921 309.072C165.453 308.907 164.984 308.736 164.515 308.559C164.059 308.369 163.635 308.135 163.242 307.856C162.85 307.577 162.533 307.223 162.292 306.792C162.064 306.361 161.95 305.81 161.95 305.139C161.95 304.43 162.121 303.822 162.463 303.315C162.805 302.808 163.274 302.422 163.869 302.156C164.465 301.877 165.142 301.738 165.902 301.738C166.751 301.738 167.505 301.903 168.163 302.232C168.835 302.561 169.392 303.005 169.835 303.562L168.885 304.512C168.48 304.031 168.037 303.663 167.555 303.41C167.074 303.157 166.51 303.03 165.864 303.03C165.104 303.03 164.496 303.207 164.04 303.562C163.584 303.917 163.356 304.411 163.356 305.044C163.356 305.538 163.47 305.937 163.698 306.241C163.939 306.545 164.256 306.798 164.648 307.001C165.041 307.204 165.465 307.387 165.921 307.552C166.39 307.704 166.859 307.875 167.327 308.065C167.796 308.255 168.22 308.496 168.6 308.787C168.993 309.078 169.31 309.452 169.55 309.908C169.791 310.351 169.911 310.921 169.911 311.618C169.911 312.745 169.525 313.626 168.752 314.259C167.992 314.88 166.954 315.19 165.636 315.19Z" fill="white"/>
<path d="M26.7294 264L19.5854 257.179L26.5774 250.928H28.4394L20.9914 257.559V256.761L28.6294 264H26.7294ZM18.4454 264V250.928H19.8324V264H18.4454ZM34.1108 258.604L28.9238 250.928H30.5578L34.8708 257.369H34.1868L38.5378 250.928H40.1148L34.8898 258.604H34.1108ZM33.8258 264V257.597H35.2318V264H33.8258ZM45.1194 264V251.289H46.5254V264H45.1194ZM40.5214 252.201V250.928H51.1234V252.201H40.5214Z" fill="white"/>
<path d="M240.959 66L236.741 52.928H238.128L241.681 64.176H241.263L244.778 52.928H245.823L249.357 64.176H248.92L252.473 52.928H253.879L249.642 66H248.616L245.101 54.771H245.5L241.985 66H240.959ZM258.598 66.19C257.699 66.19 256.894 65.9873 256.185 65.582C255.476 65.1767 254.912 64.6193 254.494 63.91C254.089 63.2007 253.886 62.4027 253.886 61.516C253.886 60.642 254.089 59.8567 254.494 59.16C254.899 58.4507 255.45 57.8933 256.147 57.488C256.844 57.0827 257.623 56.88 258.484 56.88C259.295 56.88 260.01 57.0637 260.631 57.431C261.264 57.7983 261.758 58.3113 262.113 58.97C262.48 59.616 262.664 60.3633 262.664 61.212C262.664 61.3133 262.658 61.4337 262.645 61.573C262.632 61.6997 262.607 61.8517 262.569 62.029H254.836V60.889H261.847L261.372 61.307C261.385 60.6483 261.271 60.0847 261.03 59.616C260.802 59.1347 260.466 58.7673 260.023 58.514C259.592 58.248 259.067 58.115 258.446 58.115C257.8 58.115 257.236 58.2543 256.755 58.533C256.274 58.8117 255.894 59.2043 255.615 59.711C255.349 60.205 255.216 60.794 255.216 61.478C255.216 62.162 255.355 62.7637 255.634 63.283C255.925 63.8023 256.324 64.2077 256.831 64.499C257.35 64.7903 257.946 64.936 258.617 64.936C259.162 64.936 259.662 64.841 260.118 64.651C260.574 64.4483 260.96 64.1507 261.277 63.758L262.132 64.632C261.714 65.126 261.195 65.5123 260.574 65.791C259.966 66.057 259.307 66.19 258.598 66.19ZM269.316 66.19C268.632 66.19 268.017 66.0507 267.473 65.772C266.928 65.4933 266.478 65.1133 266.124 64.632C265.782 64.138 265.573 63.568 265.497 62.922V60.129C265.573 59.4703 265.788 58.9003 266.143 58.419C266.497 57.925 266.947 57.545 267.492 57.279C268.049 57.013 268.657 56.88 269.316 56.88C270.139 56.88 270.88 57.089 271.539 57.507C272.197 57.9123 272.717 58.4697 273.097 59.179C273.489 59.8757 273.686 60.6673 273.686 61.554C273.686 62.428 273.496 63.2133 273.116 63.91C272.736 64.6067 272.21 65.164 271.539 65.582C270.88 65.9873 270.139 66.19 269.316 66.19ZM264.699 66V52.548H266.029V59.255L265.763 61.402L266.029 63.606V66H264.699ZM269.088 64.917C269.721 64.917 270.278 64.7777 270.76 64.499C271.241 64.2077 271.615 63.8087 271.881 63.302C272.159 62.7827 272.299 62.1937 272.299 61.535C272.299 60.8637 272.159 60.2747 271.881 59.768C271.615 59.2613 271.241 58.8623 270.76 58.571C270.278 58.2797 269.727 58.134 269.107 58.134C268.486 58.134 267.935 58.2797 267.454 58.571C266.985 58.8623 266.618 59.2613 266.352 59.768C266.086 60.2747 265.953 60.8637 265.953 61.535C265.953 62.1937 266.086 62.7827 266.352 63.302C266.618 63.8087 266.985 64.2077 267.454 64.499C267.922 64.7777 268.467 64.917 269.088 64.917ZM279.176 66.19C278.34 66.19 277.574 66.0253 276.877 65.696C276.193 65.3667 275.617 64.8917 275.148 64.271L276.079 63.34C276.396 63.8213 276.826 64.2013 277.371 64.48C277.916 64.746 278.511 64.879 279.157 64.879C279.79 64.879 280.335 64.7587 280.791 64.518C281.26 64.2773 281.621 63.9417 281.874 63.511C282.14 63.0677 282.273 62.5547 282.273 61.972C282.273 61.3767 282.14 60.8637 281.874 60.433C281.621 60.0023 281.253 59.6667 280.772 59.426C280.303 59.1853 279.74 59.065 279.081 59.065C278.866 59.065 278.644 59.0777 278.416 59.103C278.201 59.1283 277.985 59.1727 277.77 59.236L278.302 58.457C278.517 58.343 278.752 58.2543 279.005 58.191C279.258 58.1277 279.537 58.096 279.841 58.096C280.563 58.096 281.215 58.267 281.798 58.609C282.381 58.9383 282.837 59.4007 283.166 59.996C283.508 60.5787 283.679 61.2563 283.679 62.029C283.679 62.8523 283.489 63.5743 283.109 64.195C282.729 64.8157 282.197 65.3033 281.513 65.658C280.842 66.0127 280.063 66.19 279.176 66.19ZM277.77 59.236V58.381L281.912 53.726L283.527 53.783L279.309 58.495L277.77 59.236ZM275.718 54.163V52.928H283.527V53.783L282.33 54.163H275.718Z" fill="white"/>
<path d="M241.282 264.19C240.269 264.19 239.395 264 238.66 263.62C237.925 263.227 237.279 262.683 236.722 261.986L237.691 261.036C238.134 261.657 238.647 262.119 239.23 262.423C239.825 262.727 240.528 262.879 241.339 262.879C242.175 262.879 242.853 262.689 243.372 262.309C243.891 261.929 244.151 261.403 244.151 260.732C244.151 260.213 244.031 259.788 243.79 259.459C243.549 259.117 243.233 258.845 242.84 258.642C242.46 258.427 242.036 258.237 241.567 258.072C241.098 257.907 240.63 257.736 240.161 257.559C239.705 257.369 239.281 257.135 238.888 256.856C238.495 256.577 238.179 256.223 237.938 255.792C237.71 255.361 237.596 254.81 237.596 254.139C237.596 253.43 237.767 252.822 238.109 252.315C238.451 251.808 238.92 251.422 239.515 251.156C240.11 250.877 240.788 250.738 241.548 250.738C242.397 250.738 243.15 250.903 243.809 251.232C244.48 251.561 245.038 252.005 245.481 252.562L244.531 253.512C244.126 253.031 243.682 252.663 243.201 252.41C242.72 252.157 242.156 252.03 241.51 252.03C240.75 252.03 240.142 252.207 239.686 252.562C239.23 252.917 239.002 253.411 239.002 254.044C239.002 254.538 239.116 254.937 239.344 255.241C239.585 255.545 239.901 255.798 240.294 256.001C240.687 256.204 241.111 256.387 241.567 256.552C242.036 256.704 242.504 256.875 242.973 257.065C243.442 257.255 243.866 257.496 244.246 257.787C244.639 258.078 244.955 258.452 245.196 258.908C245.437 259.351 245.557 259.921 245.557 260.618C245.557 261.745 245.171 262.626 244.398 263.259C243.638 263.88 242.599 264.19 241.282 264.19ZM251.826 264.19C250.926 264.19 250.122 263.987 249.413 263.582C248.703 263.177 248.14 262.619 247.722 261.91C247.316 261.201 247.114 260.403 247.114 259.516C247.114 258.642 247.316 257.857 247.722 257.16C248.127 256.451 248.678 255.893 249.375 255.488C250.071 255.083 250.85 254.88 251.712 254.88C252.522 254.88 253.238 255.064 253.859 255.431C254.492 255.798 254.986 256.311 255.341 256.97C255.708 257.616 255.892 258.363 255.892 259.212C255.892 259.313 255.885 259.434 255.873 259.573C255.86 259.7 255.835 259.852 255.797 260.029H248.064V258.889H255.075L254.6 259.307C254.612 258.648 254.498 258.085 254.258 257.616C254.03 257.135 253.694 256.767 253.251 256.514C252.82 256.248 252.294 256.115 251.674 256.115C251.028 256.115 250.464 256.254 249.983 256.533C249.501 256.812 249.121 257.204 248.843 257.711C248.577 258.205 248.444 258.794 248.444 259.478C248.444 260.162 248.583 260.764 248.862 261.283C249.153 261.802 249.552 262.208 250.059 262.499C250.578 262.79 251.173 262.936 251.845 262.936C252.389 262.936 252.89 262.841 253.346 262.651C253.802 262.448 254.188 262.151 254.505 261.758L255.36 262.632C254.942 263.126 254.422 263.512 253.802 263.791C253.194 264.057 252.535 264.19 251.826 264.19ZM261.992 264.19C261.118 264.19 260.326 263.987 259.617 263.582C258.92 263.164 258.363 262.6 257.945 261.891C257.54 261.182 257.337 260.39 257.337 259.516C257.337 258.642 257.54 257.857 257.945 257.16C258.363 256.451 258.92 255.893 259.617 255.488C260.326 255.083 261.118 254.88 261.992 254.88C262.663 254.88 263.29 255.007 263.873 255.26C264.456 255.513 264.95 255.868 265.355 256.324L264.481 257.217C264.177 256.875 263.81 256.615 263.379 256.438C262.948 256.248 262.486 256.153 261.992 256.153C261.359 256.153 260.795 256.299 260.301 256.59C259.807 256.881 259.421 257.28 259.142 257.787C258.863 258.281 258.724 258.857 258.724 259.516C258.724 260.162 258.863 260.745 259.142 261.264C259.421 261.771 259.807 262.17 260.301 262.461C260.795 262.752 261.359 262.898 261.992 262.898C262.499 262.898 262.967 262.809 263.398 262.632C263.829 262.442 264.196 262.176 264.5 261.834L265.393 262.727C264.975 263.196 264.468 263.557 263.873 263.81C263.29 264.063 262.663 264.19 261.992 264.19ZM270.793 264.19C270.071 264.19 269.425 264.025 268.855 263.696C268.285 263.354 267.835 262.892 267.506 262.309C267.189 261.726 267.031 261.042 267.031 260.257V255.07H268.38V260.2C268.38 260.745 268.475 261.22 268.665 261.625C268.868 262.03 269.153 262.347 269.52 262.575C269.887 262.803 270.312 262.917 270.793 262.917C271.54 262.917 272.129 262.67 272.56 262.176C273.003 261.682 273.225 261.023 273.225 260.2V255.07H274.555V260.257C274.555 261.03 274.397 261.714 274.08 262.309C273.763 262.904 273.32 263.367 272.75 263.696C272.18 264.025 271.528 264.19 270.793 264.19ZM277.037 264V255.07H278.367V264H277.037ZM278.367 258.794L277.816 258.547C277.816 257.42 278.089 256.527 278.633 255.868C279.191 255.209 279.951 254.88 280.913 254.88C281.357 254.88 281.762 254.962 282.129 255.127C282.497 255.279 282.839 255.526 283.155 255.868L282.281 256.799C282.066 256.558 281.825 256.387 281.559 256.286C281.306 256.185 281.015 256.134 280.685 256.134C280.001 256.134 279.444 256.362 279.013 256.818C278.583 257.261 278.367 257.92 278.367 258.794ZM284.571 264V255.07H285.92V264H284.571ZM285.236 253.132C284.982 253.132 284.767 253.043 284.59 252.866C284.412 252.676 284.324 252.454 284.324 252.201C284.324 251.935 284.412 251.713 284.59 251.536C284.767 251.359 284.982 251.27 285.236 251.27C285.514 251.27 285.736 251.359 285.901 251.536C286.078 251.713 286.167 251.935 286.167 252.201C286.167 252.454 286.078 252.676 285.901 252.866C285.736 253.043 285.514 253.132 285.236 253.132ZM290.003 264V251.308H291.333V264H290.003ZM287.742 256.267V255.07H293.575V256.267H287.742ZM298.39 264.038L294.476 255.07H295.939L299.093 262.556H298.542L301.867 255.07H303.349L299.15 264.038H298.39ZM295.958 267.762L298.409 262.689L299.15 264.038L297.421 267.762H295.958Z" fill="white"/>
<defs>
<linearGradient id="paint0_linear_1172_3233" x1="220.914" y1="71.2847" x2="57.7112" y2="239.71" gradientUnits="userSpaceOnUse">
<stop stop-color="#7F4EFF"/>
<stop offset="1" stop-color="#00A6FF"/>
</linearGradient>
</defs>
</svg>
