<svg width="870" height="601" viewBox="0 0 870 601" fill="none" xmlns="http://www.w3.org/2000/svg">
<path d="M96.5161 100.051L89.4121 78.0348H91.7481L97.7321 96.9788H97.0281L102.948 78.0348H104.708L110.66 96.9788H109.924L115.908 78.0348H118.276L111.14 100.051H109.412L103.492 81.1388H104.164L98.2441 100.051H96.5161ZM126.224 100.371C124.709 100.371 123.354 100.029 122.16 99.3468C120.965 98.6641 120.016 97.7254 119.312 96.5308C118.629 95.3361 118.288 93.9921 118.288 92.4988C118.288 91.0268 118.629 89.7041 119.312 88.5308C119.994 87.3361 120.922 86.3974 122.096 85.7148C123.269 85.0321 124.581 84.6908 126.032 84.6908C127.397 84.6908 128.602 85.0001 129.648 85.6188C130.714 86.2374 131.546 87.1014 132.144 88.2108C132.762 89.2988 133.072 90.5574 133.072 91.9868C133.072 92.1574 133.061 92.3601 133.04 92.5948C133.018 92.8081 132.976 93.0641 132.912 93.3628H119.888V91.4428H131.696L130.896 92.1468C130.917 91.0374 130.725 90.0881 130.32 89.2988C129.936 88.4881 129.37 87.8694 128.624 87.4428C127.898 86.9948 127.013 86.7708 125.968 86.7708C124.88 86.7708 123.93 87.0054 123.12 87.4748C122.309 87.9441 121.669 88.6054 121.2 89.4588C120.752 90.2908 120.528 91.2828 120.528 92.4348C120.528 93.5868 120.762 94.6001 121.232 95.4748C121.722 96.3494 122.394 97.0321 123.248 97.5228C124.122 98.0134 125.125 98.2588 126.256 98.2588C127.173 98.2588 128.016 98.0988 128.784 97.7788C129.552 97.4374 130.202 96.9361 130.736 96.2748L132.176 97.7468C131.472 98.5788 130.597 99.2294 129.552 99.6988C128.528 100.147 127.418 100.371 126.224 100.371ZM144.275 100.371C143.123 100.371 142.088 100.136 141.171 99.6668C140.253 99.1974 139.496 98.5574 138.899 97.7468C138.323 96.9148 137.971 95.9548 137.843 94.8668V90.1628C137.971 89.0534 138.333 88.0934 138.931 87.2828C139.528 86.4508 140.285 85.8108 141.203 85.3628C142.141 84.9148 143.165 84.6908 144.275 84.6908C145.661 84.6908 146.909 85.0428 148.019 85.7468C149.128 86.4294 150.003 87.3681 150.643 88.5628C151.304 89.7361 151.635 91.0694 151.635 92.5628C151.635 94.0348 151.315 95.3574 150.675 96.5308C150.035 97.7041 149.149 98.6428 148.019 99.3468C146.909 100.029 145.661 100.371 144.275 100.371ZM136.499 100.051V77.3948H138.739V88.6908L138.291 92.3068L138.739 96.0188V100.051H136.499ZM143.891 98.2268C144.957 98.2268 145.896 97.9921 146.707 97.5228C147.517 97.0321 148.147 96.3601 148.595 95.5068C149.064 94.6321 149.299 93.6401 149.299 92.5308C149.299 91.4001 149.064 90.4081 148.595 89.5548C148.147 88.7014 147.517 88.0294 146.707 87.5388C145.896 87.0481 144.968 86.8028 143.923 86.8028C142.877 86.8028 141.949 87.0481 141.139 87.5388C140.349 88.0294 139.731 88.7014 139.283 89.5548C138.835 90.4081 138.611 91.4001 138.611 92.5308C138.611 93.6401 138.835 94.6321 139.283 95.5068C139.731 96.3601 140.349 97.0321 141.139 97.5228C141.928 97.9921 142.845 98.2268 143.891 98.2268ZM160.881 100.371C159.473 100.371 158.183 100.093 157.009 99.5388C155.857 98.9841 154.887 98.1841 154.097 97.1388L155.665 95.5708C156.199 96.3814 156.924 97.0214 157.841 97.4908C158.759 97.9388 159.761 98.1628 160.849 98.1628C161.916 98.1628 162.833 97.9601 163.601 97.5548C164.391 97.1494 164.999 96.5841 165.425 95.8588C165.873 95.1121 166.097 94.2481 166.097 93.2668C166.097 92.2641 165.873 91.4001 165.425 90.6748C164.999 89.9494 164.38 89.3841 163.569 88.9788C162.78 88.5734 161.831 88.3708 160.721 88.3708C160.359 88.3708 159.985 88.3921 159.601 88.4348C159.239 88.4774 158.876 88.5521 158.513 88.6588L159.409 87.3468C159.772 87.1548 160.167 87.0054 160.593 86.8988C161.02 86.7921 161.489 86.7388 162.001 86.7388C163.217 86.7388 164.316 87.0268 165.297 87.6028C166.279 88.1574 167.047 88.9361 167.601 89.9388C168.177 90.9201 168.465 92.0614 168.465 93.3628C168.465 94.7494 168.145 95.9654 167.505 97.0108C166.865 98.0561 165.969 98.8774 164.817 99.4748C163.687 100.072 162.375 100.371 160.881 100.371ZM158.513 88.6588V87.2188L165.489 79.3788L168.209 79.4748L161.105 87.4108L158.513 88.6588ZM155.057 80.1148V78.0348H168.209V79.4748L166.193 80.1148H155.057Z" fill="white"/>
<path d="M89.5161 524.051L82.4121 502.035H84.7481L90.7321 520.979H90.0281L95.9481 502.035H97.7081L103.66 520.979H102.924L108.908 502.035H111.276L104.14 524.051H102.412L96.4921 505.139H97.1641L91.2441 524.051H89.5161ZM118.808 524.371C117.378 524.371 116.098 524.029 114.968 523.347C113.837 522.643 112.941 521.704 112.28 520.531C111.64 519.357 111.32 518.035 111.32 516.563C111.32 515.069 111.64 513.736 112.28 512.563C112.941 511.368 113.837 510.429 114.968 509.747C116.098 509.043 117.368 508.691 118.776 508.691C119.928 508.691 120.952 508.925 121.848 509.395C122.765 509.843 123.501 510.483 124.056 511.315C124.632 512.125 124.984 513.075 125.112 514.163V518.867C124.984 519.955 124.632 520.915 124.056 521.747C123.501 522.579 122.765 523.229 121.848 523.699C120.952 524.147 119.938 524.371 118.808 524.371ZM119.16 522.227C120.717 522.227 121.965 521.704 122.904 520.659C123.864 519.613 124.344 518.237 124.344 516.531C124.344 515.4 124.12 514.408 123.672 513.555C123.245 512.68 122.637 512.008 121.848 511.539C121.08 511.048 120.173 510.803 119.128 510.803C118.061 510.803 117.112 511.048 116.28 511.539C115.469 512.029 114.818 512.712 114.328 513.587C113.858 514.44 113.624 515.421 113.624 516.531C113.624 517.64 113.858 518.621 114.328 519.475C114.818 520.328 115.48 521 116.312 521.491C117.144 521.981 118.093 522.227 119.16 522.227ZM124.216 524.051V520.019L124.664 516.307L124.216 512.691V509.011H126.456V524.051H124.216ZM130.999 524.051V501.395H133.239V524.051H130.999ZM137.78 524.051V501.395H140.02V524.051H137.78ZM151.505 524.371C149.99 524.371 148.636 524.029 147.441 523.347C146.246 522.664 145.297 521.725 144.593 520.531C143.91 519.336 143.569 517.992 143.569 516.499C143.569 515.027 143.91 513.704 144.593 512.531C145.276 511.336 146.204 510.397 147.377 509.715C148.55 509.032 149.862 508.691 151.313 508.691C152.678 508.691 153.884 509 154.929 509.619C155.996 510.237 156.828 511.101 157.425 512.211C158.044 513.299 158.353 514.557 158.353 515.987C158.353 516.157 158.342 516.36 158.321 516.595C158.3 516.808 158.257 517.064 158.193 517.363H145.169V515.443H156.977L156.177 516.147C156.198 515.037 156.006 514.088 155.601 513.299C155.217 512.488 154.652 511.869 153.905 511.443C153.18 510.995 152.294 510.771 151.249 510.771C150.161 510.771 149.212 511.005 148.401 511.475C147.59 511.944 146.95 512.605 146.481 513.459C146.033 514.291 145.809 515.283 145.809 516.435C145.809 517.587 146.044 518.6 146.513 519.475C147.004 520.349 147.676 521.032 148.529 521.523C149.404 522.013 150.406 522.259 151.537 522.259C152.454 522.259 153.297 522.099 154.065 521.779C154.833 521.437 155.484 520.936 156.017 520.275L157.457 521.747C156.753 522.579 155.878 523.229 154.833 523.699C153.809 524.147 152.7 524.371 151.505 524.371ZM163.553 524.051V502.675H165.793V524.051H163.553ZM159.745 511.027V509.011H169.569V511.027H159.745Z" fill="white"/>
<path d="M9.06006 312.371C7.3534 312.371 5.8814 312.051 4.64406 311.411C3.40673 310.749 2.31873 309.832 1.38006 308.659L3.01206 307.059C3.75873 308.104 4.62273 308.883 5.60406 309.395C6.60673 309.907 7.79073 310.163 9.15606 310.163C10.5641 310.163 11.7054 309.843 12.5801 309.203C13.4547 308.563 13.8921 307.677 13.8921 306.547C13.8921 305.672 13.6894 304.957 13.2841 304.403C12.8787 303.827 12.3454 303.368 11.6841 303.027C11.0441 302.664 10.3294 302.344 9.54006 302.067C8.75073 301.789 7.9614 301.501 7.17206 301.203C6.40406 300.883 5.6894 300.488 5.02806 300.019C4.36673 299.549 3.8334 298.952 3.42806 298.227C3.04406 297.501 2.85206 296.573 2.85206 295.443C2.85206 294.248 3.14006 293.224 3.71606 292.371C4.29206 291.517 5.0814 290.867 6.08406 290.419C7.08673 289.949 8.22806 289.715 9.50806 289.715C10.9374 289.715 12.2067 289.992 13.3161 290.547C14.4467 291.101 15.3854 291.848 16.1321 292.787L14.5321 294.387C13.8494 293.576 13.1027 292.957 12.2921 292.531C11.4814 292.104 10.5321 291.891 9.44406 291.891C8.16406 291.891 7.14006 292.189 6.37206 292.787C5.60406 293.384 5.22006 294.216 5.22006 295.283C5.22006 296.115 5.41206 296.787 5.79606 297.299C6.2014 297.811 6.73473 298.237 7.39606 298.579C8.0574 298.92 8.77206 299.229 9.54006 299.507C10.3294 299.763 11.1187 300.051 11.9081 300.371C12.6974 300.691 13.4121 301.096 14.0521 301.587C14.7134 302.077 15.2467 302.707 15.6521 303.475C16.0574 304.221 16.2601 305.181 16.2601 306.355C16.2601 308.253 15.6094 309.736 14.3081 310.803C13.0281 311.848 11.2787 312.371 9.06006 312.371ZM26.6896 312.371C25.2389 312.371 23.9162 312.019 22.7216 311.315C21.5482 310.611 20.6096 309.661 19.9056 308.467C19.2229 307.272 18.8816 305.939 18.8816 304.467C18.8816 303.016 19.2229 301.704 19.9056 300.531C20.6096 299.357 21.5482 298.429 22.7216 297.747C23.9162 297.043 25.2389 296.691 26.6896 296.691C28.1616 296.691 29.4842 297.032 30.6576 297.715C31.8309 298.397 32.7589 299.336 33.4416 300.531C34.1456 301.704 34.4976 303.016 34.4976 304.467C34.4976 305.96 34.1456 307.304 33.4416 308.499C32.7589 309.672 31.8309 310.611 30.6576 311.315C29.4842 312.019 28.1616 312.371 26.6896 312.371ZM26.6896 310.195C27.7562 310.195 28.6949 309.949 29.5056 309.459C30.3376 308.968 30.9882 308.285 31.4576 307.411C31.9482 306.536 32.1936 305.555 32.1936 304.467C32.1936 303.379 31.9482 302.419 31.4576 301.587C30.9882 300.733 30.3376 300.061 29.5056 299.571C28.6949 299.08 27.7562 298.835 26.6896 298.835C25.6442 298.835 24.7056 299.08 23.8736 299.571C23.0416 300.061 22.3909 300.733 21.9216 301.587C21.4522 302.419 21.2176 303.379 21.2176 304.467C21.2176 305.576 21.4522 306.568 21.9216 307.443C22.3909 308.296 23.0416 308.968 23.8736 309.459C24.7056 309.949 25.6442 310.195 26.6896 310.195ZM38.0611 312.051V289.395H40.3011V312.051H38.0611ZM50.7943 312.371C49.5783 312.371 48.4903 312.093 47.5303 311.539C46.5703 310.963 45.813 310.184 45.2583 309.203C44.725 308.221 44.4583 307.069 44.4583 305.747V297.011H46.7303V305.651C46.7303 306.568 46.8903 307.368 47.2103 308.051C47.5516 308.733 48.0316 309.267 48.6503 309.651C49.269 310.035 49.9836 310.227 50.7943 310.227C52.053 310.227 53.045 309.811 53.7703 308.979C54.517 308.147 54.8903 307.037 54.8903 305.651V297.011H57.1303V305.747C57.1303 307.048 56.8636 308.2 56.3303 309.203C55.797 310.205 55.0503 310.984 54.0903 311.539C53.1303 312.093 52.0316 312.371 50.7943 312.371ZM63.6471 312.051V290.675H65.8871V312.051H63.6471ZM59.8391 299.027V297.011H69.6631V299.027H59.8391ZM72.7486 312.051V297.011H75.0206V312.051H72.7486ZM73.8686 293.747C73.4419 293.747 73.0792 293.597 72.7806 293.299C72.4819 292.979 72.3326 292.605 72.3326 292.179C72.3326 291.731 72.4819 291.357 72.7806 291.059C73.0792 290.76 73.4419 290.611 73.8686 290.611C74.3379 290.611 74.7112 290.76 74.9886 291.059C75.2872 291.357 75.4366 291.731 75.4366 292.179C75.4366 292.605 75.2872 292.979 74.9886 293.299C74.7112 293.597 74.3379 293.747 73.8686 293.747ZM86.3771 312.371C84.9264 312.371 83.6037 312.019 82.4091 311.315C81.2357 310.611 80.2971 309.661 79.5931 308.467C78.9104 307.272 78.5691 305.939 78.5691 304.467C78.5691 303.016 78.9104 301.704 79.5931 300.531C80.2971 299.357 81.2357 298.429 82.4091 297.747C83.6037 297.043 84.9264 296.691 86.3771 296.691C87.8491 296.691 89.1717 297.032 90.3451 297.715C91.5184 298.397 92.4464 299.336 93.1291 300.531C93.8331 301.704 94.1851 303.016 94.1851 304.467C94.1851 305.96 93.8331 307.304 93.1291 308.499C92.4464 309.672 91.5184 310.611 90.3451 311.315C89.1717 312.019 87.8491 312.371 86.3771 312.371ZM86.3771 310.195C87.4437 310.195 88.3824 309.949 89.1931 309.459C90.0251 308.968 90.6757 308.285 91.1451 307.411C91.6357 306.536 91.8811 305.555 91.8811 304.467C91.8811 303.379 91.6357 302.419 91.1451 301.587C90.6757 300.733 90.0251 300.061 89.1931 299.571C88.3824 299.08 87.4437 298.835 86.3771 298.835C85.3317 298.835 84.3931 299.08 83.5611 299.571C82.7291 300.061 82.0784 300.733 81.6091 301.587C81.1397 302.419 80.9051 303.379 80.9051 304.467C80.9051 305.576 81.1397 306.568 81.6091 307.443C82.0784 308.296 82.7291 308.968 83.5611 309.459C84.3931 309.949 85.3317 310.195 86.3771 310.195ZM108.693 312.051V303.219C108.693 301.896 108.298 300.829 107.509 300.019C106.741 299.187 105.717 298.771 104.437 298.771C103.562 298.771 102.794 298.963 102.133 299.347C101.471 299.731 100.949 300.253 100.565 300.915C100.181 301.576 99.9886 302.333 99.9886 303.187L98.9646 302.611C98.9646 301.48 99.2312 300.467 99.7646 299.571C100.298 298.675 101.013 297.971 101.909 297.459C102.826 296.947 103.871 296.691 105.045 296.691C106.197 296.691 107.221 296.968 108.117 297.523C109.013 298.077 109.706 298.824 110.197 299.763C110.709 300.701 110.965 301.725 110.965 302.835V312.051H108.693ZM97.7486 312.051V297.011H99.9886V312.051H97.7486Z" fill="white"/>
<path d="M736.06 100.371C734.353 100.371 732.881 100.051 731.644 99.4108C730.407 98.7494 729.319 97.8321 728.38 96.6588L730.012 95.0588C730.759 96.1041 731.623 96.8828 732.604 97.3948C733.607 97.9068 734.791 98.1628 736.156 98.1628C737.564 98.1628 738.705 97.8428 739.58 97.2028C740.455 96.5628 740.892 95.6774 740.892 94.5468C740.892 93.6721 740.689 92.9574 740.284 92.4028C739.879 91.8268 739.345 91.3681 738.684 91.0268C738.044 90.6641 737.329 90.3441 736.54 90.0668C735.751 89.7894 734.961 89.5014 734.172 89.2028C733.404 88.8828 732.689 88.4881 732.028 88.0188C731.367 87.5494 730.833 86.9521 730.428 86.2268C730.044 85.5014 729.852 84.5734 729.852 83.4428C729.852 82.2481 730.14 81.2241 730.716 80.3708C731.292 79.5174 732.081 78.8668 733.084 78.4188C734.087 77.9494 735.228 77.7148 736.508 77.7148C737.937 77.7148 739.207 77.9921 740.316 78.5468C741.447 79.1014 742.385 79.8481 743.132 80.7868L741.532 82.3868C740.849 81.5761 740.103 80.9574 739.292 80.5308C738.481 80.1041 737.532 79.8908 736.444 79.8908C735.164 79.8908 734.14 80.1894 733.372 80.7868C732.604 81.3841 732.22 82.2161 732.22 83.2828C732.22 84.1148 732.412 84.7868 732.796 85.2988C733.201 85.8108 733.735 86.2374 734.396 86.5788C735.057 86.9201 735.772 87.2294 736.54 87.5068C737.329 87.7628 738.119 88.0508 738.908 88.3708C739.697 88.6908 740.412 89.0961 741.052 89.5868C741.713 90.0774 742.247 90.7068 742.652 91.4748C743.057 92.2214 743.26 93.1814 743.26 94.3548C743.26 96.2534 742.609 97.7361 741.308 98.8028C740.028 99.8481 738.279 100.371 736.06 100.371ZM753.818 100.371C752.303 100.371 750.948 100.029 749.754 99.3468C748.559 98.6641 747.61 97.7254 746.906 96.5308C746.223 95.3361 745.882 93.9921 745.882 92.4988C745.882 91.0268 746.223 89.7041 746.906 88.5308C747.588 87.3361 748.516 86.3974 749.69 85.7148C750.863 85.0321 752.175 84.6908 753.626 84.6908C754.991 84.6908 756.196 85.0001 757.242 85.6188C758.308 86.2374 759.14 87.1014 759.738 88.2108C760.356 89.2988 760.666 90.5574 760.666 91.9868C760.666 92.1574 760.655 92.3601 760.634 92.5948C760.612 92.8081 760.57 93.0641 760.506 93.3628H747.482V91.4428H759.29L758.49 92.1468C758.511 91.0374 758.319 90.0881 757.914 89.2988C757.53 88.4881 756.964 87.8694 756.218 87.4428C755.492 86.9948 754.607 86.7708 753.562 86.7708C752.474 86.7708 751.524 87.0054 750.714 87.4748C749.903 87.9441 749.263 88.6054 748.794 89.4588C748.346 90.2908 748.122 91.2828 748.122 92.4348C748.122 93.5868 748.356 94.6001 748.826 95.4748C749.316 96.3494 749.988 97.0321 750.842 97.5228C751.716 98.0134 752.719 98.2588 753.85 98.2588C754.767 98.2588 755.61 98.0988 756.378 97.7788C757.146 97.4374 757.796 96.9361 758.33 96.2748L759.77 97.7468C759.066 98.5788 758.191 99.2294 757.146 99.6988C756.122 100.147 755.012 100.371 753.818 100.371ZM770.94 100.371C769.468 100.371 768.135 100.029 766.94 99.3468C765.767 98.6428 764.828 97.6934 764.124 96.4988C763.442 95.3041 763.1 93.9708 763.1 92.4988C763.1 91.0268 763.442 89.7041 764.124 88.5308C764.828 87.3361 765.767 86.3974 766.94 85.7148C768.135 85.0321 769.468 84.6908 770.94 84.6908C772.071 84.6908 773.127 84.9041 774.108 85.3308C775.09 85.7574 775.922 86.3548 776.604 87.1228L775.132 88.6268C774.62 88.0508 774.002 87.6134 773.276 87.3148C772.551 86.9948 771.772 86.8348 770.94 86.8348C769.874 86.8348 768.924 87.0801 768.092 87.5708C767.26 88.0614 766.61 88.7334 766.14 89.5868C765.671 90.4188 765.436 91.3894 765.436 92.4988C765.436 93.5868 765.671 94.5681 766.14 95.4428C766.61 96.2961 767.26 96.9681 768.092 97.4588C768.924 97.9494 769.874 98.1948 770.94 98.1948C771.794 98.1948 772.583 98.0454 773.308 97.7468C774.034 97.4268 774.652 96.9788 775.164 96.4028L776.668 97.9068C775.964 98.6961 775.111 99.3041 774.108 99.7308C773.127 100.157 772.071 100.371 770.94 100.371ZM785.763 100.371C784.547 100.371 783.459 100.093 782.499 99.5388C781.539 98.9628 780.782 98.1841 780.227 97.2028C779.694 96.2214 779.427 95.0694 779.427 93.7468V85.0108H781.699V93.6508C781.699 94.5681 781.859 95.3681 782.179 96.0508C782.52 96.7334 783 97.2668 783.619 97.6508C784.238 98.0348 784.952 98.2268 785.763 98.2268C787.022 98.2268 788.014 97.8108 788.739 96.9788C789.486 96.1468 789.859 95.0374 789.859 93.6508V85.0108H792.099V93.7468C792.099 95.0481 791.832 96.2001 791.299 97.2028C790.766 98.2054 790.019 98.9841 789.059 99.5388C788.099 100.093 787 100.371 785.763 100.371ZM796.28 100.051V85.0108H798.52V100.051H796.28ZM798.52 91.2828L797.592 90.8668C797.592 88.9681 798.05 87.4641 798.968 86.3548C799.906 85.2454 801.186 84.6908 802.808 84.6908C803.554 84.6908 804.237 84.8294 804.856 85.1068C805.474 85.3628 806.05 85.7788 806.584 86.3548L805.112 87.9228C804.749 87.5174 804.344 87.2294 803.896 87.0588C803.469 86.8881 802.978 86.8028 802.424 86.8028C801.272 86.8028 800.333 87.1868 799.608 87.9548C798.882 88.7014 798.52 89.8108 798.52 91.2828ZM808.967 100.051V85.0108H811.239V100.051H808.967ZM810.087 81.7468C809.661 81.7468 809.298 81.5974 808.999 81.2988C808.701 80.9788 808.551 80.6054 808.551 80.1788C808.551 79.7308 808.701 79.3574 808.999 79.0588C809.298 78.7601 809.661 78.6108 810.087 78.6108C810.557 78.6108 810.93 78.7601 811.207 79.0588C811.506 79.3574 811.655 79.7308 811.655 80.1788C811.655 80.6054 811.506 80.9788 811.207 81.2988C810.93 81.5974 810.557 81.7468 810.087 81.7468ZM818.116 100.051V78.6748H820.356V100.051H818.116ZM814.308 87.0268V85.0108H824.132V87.0268H814.308ZM832.241 100.115L825.649 85.0108H828.113L833.425 97.6188H832.497L838.097 85.0108H840.593L833.521 100.115H832.241ZM828.145 106.387L832.273 97.8428L833.521 100.115L830.609 106.387H828.145Z" fill="white"/>
<path d="M743.932 524.051L731.9 512.563L743.676 502.035H746.812L734.268 513.203V511.859L747.132 524.051H743.932ZM729.98 524.051V502.035H732.316V524.051H729.98ZM756.364 514.963L747.628 502.035H750.38L757.644 512.883H756.492L763.82 502.035H766.476L757.676 514.963H756.364ZM755.884 524.051V513.267H758.252V524.051H755.884ZM774.905 524.051V502.643H777.273V524.051H774.905ZM767.161 504.179V502.035H785.017V504.179H767.161Z" fill="white"/>
<path d="M793.516 312.051L786.412 290.035H788.748L794.732 308.979H794.028L799.948 290.035H801.708L807.66 308.979H806.924L812.908 290.035H815.276L808.14 312.051H806.412L800.492 293.139H801.164L795.244 312.051H793.516ZM822.808 312.371C821.378 312.371 820.098 312.029 818.968 311.347C817.837 310.643 816.941 309.704 816.28 308.531C815.64 307.357 815.32 306.035 815.32 304.563C815.32 303.069 815.64 301.736 816.28 300.563C816.941 299.368 817.837 298.429 818.968 297.747C820.098 297.043 821.368 296.691 822.776 296.691C823.928 296.691 824.952 296.925 825.848 297.395C826.765 297.843 827.501 298.483 828.056 299.315C828.632 300.125 828.984 301.075 829.112 302.163V306.867C828.984 307.955 828.632 308.915 828.056 309.747C827.501 310.579 826.765 311.229 825.848 311.699C824.952 312.147 823.938 312.371 822.808 312.371ZM823.16 310.227C824.717 310.227 825.965 309.704 826.904 308.659C827.864 307.613 828.344 306.237 828.344 304.531C828.344 303.4 828.12 302.408 827.672 301.555C827.245 300.68 826.637 300.008 825.848 299.539C825.08 299.048 824.173 298.803 823.128 298.803C822.061 298.803 821.112 299.048 820.28 299.539C819.469 300.029 818.818 300.712 818.328 301.587C817.858 302.44 817.624 303.421 817.624 304.531C817.624 305.64 817.858 306.621 818.328 307.475C818.818 308.328 819.48 309 820.312 309.491C821.144 309.981 822.093 310.227 823.16 310.227ZM828.216 312.051V308.019L828.664 304.307L828.216 300.691V297.011H830.456V312.051H828.216ZM841.527 312.371C840.097 312.371 838.817 312.029 837.687 311.347C836.556 310.643 835.66 309.704 834.999 308.531C834.359 307.357 834.039 306.035 834.039 304.563C834.039 303.069 834.359 301.736 834.999 300.563C835.66 299.368 836.556 298.429 837.687 297.747C838.817 297.043 840.087 296.691 841.495 296.691C842.647 296.691 843.671 296.925 844.567 297.395C845.484 297.843 846.22 298.483 846.775 299.315C847.351 300.125 847.703 301.075 847.831 302.163V306.867C847.703 307.955 847.351 308.915 846.775 309.747C846.22 310.579 845.484 311.229 844.567 311.699C843.671 312.147 842.657 312.371 841.527 312.371ZM841.879 310.227C843.436 310.227 844.684 309.704 845.623 308.659C846.583 307.613 847.063 306.237 847.063 304.531C847.063 303.4 846.839 302.408 846.391 301.555C845.964 300.68 845.356 300.008 844.567 299.539C843.799 299.048 842.892 298.803 841.847 298.803C840.78 298.803 839.831 299.048 838.999 299.539C838.188 300.029 837.537 300.712 837.047 301.587C836.577 302.44 836.343 303.421 836.343 304.531C836.343 305.64 836.577 306.621 837.047 307.475C837.537 308.328 838.199 309 839.031 309.491C839.863 309.981 840.812 310.227 841.879 310.227ZM846.935 312.051V308.019L847.383 304.307L846.935 300.691V297.011H849.175V312.051H846.935ZM860.341 312.371C858.635 312.371 857.163 312.051 855.925 311.411C854.688 310.749 853.6 309.832 852.661 308.659L854.293 307.059C855.04 308.104 855.904 308.883 856.885 309.395C857.888 309.907 859.072 310.163 860.437 310.163C861.845 310.163 862.987 309.843 863.861 309.203C864.736 308.563 865.173 307.677 865.173 306.547C865.173 305.672 864.971 304.957 864.565 304.403C864.16 303.827 863.627 303.368 862.965 303.027C862.325 302.664 861.611 302.344 860.821 302.067C860.032 301.789 859.243 301.501 858.453 301.203C857.685 300.883 856.971 300.488 856.309 300.019C855.648 299.549 855.115 298.952 854.709 298.227C854.325 297.501 854.133 296.573 854.133 295.443C854.133 294.248 854.421 293.224 854.997 292.371C855.573 291.517 856.363 290.867 857.365 290.419C858.368 289.949 859.509 289.715 860.789 289.715C862.219 289.715 863.488 289.992 864.597 290.547C865.728 291.101 866.667 291.848 867.413 292.787L865.813 294.387C865.131 293.576 864.384 292.957 863.573 292.531C862.763 292.104 861.813 291.891 860.725 291.891C859.445 291.891 858.421 292.189 857.653 292.787C856.885 293.384 856.501 294.216 856.501 295.283C856.501 296.115 856.693 296.787 857.077 297.299C857.483 297.811 858.016 298.237 858.677 298.579C859.339 298.92 860.053 299.229 860.821 299.507C861.611 299.763 862.4 300.051 863.189 300.371C863.979 300.691 864.693 301.096 865.333 301.587C865.995 302.077 866.528 302.707 866.933 303.475C867.339 304.221 867.541 305.181 867.541 306.355C867.541 308.253 866.891 309.736 865.589 310.803C864.309 311.848 862.56 312.371 860.341 312.371Z" fill="white"/>
<circle cx="449.164" cy="300.051" r="299" stroke="url(#paint0_linear_833_2412)" stroke-width="2" stroke-dasharray="5 5"/>
<circle cx="203.164" cy="128.051" r="12" fill="#9318FF"/>
<circle cx="203.164" cy="472.051" r="12" fill="#2E27FF"/>
<circle cx="149.164" cy="300.051" r="12" fill="#9318FF"/>
<circle cx="695.164" cy="128.051" r="12" fill="#9318FF"/>
<circle cx="695.164" cy="472.051" r="12" fill="#4583FF"/>
<circle cx="749.164" cy="300.051" r="12" fill="#2E27FF"/>
<g style="mix-blend-mode:overlay">
<path fill-rule="evenodd" clip-rule="evenodd" d="M352.885 316.087L372.838 237.906C374.699 230.721 380.861 225.799 387.803 223.873L460.632 202.824C467.58 200.898 475.498 202.57 480.585 207.836L536.454 264.969C541.541 270.234 543.303 277.824 541.442 285.015L521.489 363.197C519.628 370.382 513.472 375.304 506.524 377.23L433.695 398.279C426.747 400.204 418.83 398.526 413.742 393.267L357.873 336.134C352.792 330.868 351.024 323.279 352.885 316.087ZM482.923 255.116C483.701 255.325 484.671 255.863 484.92 256.117L488.915 260.119C488.958 260.163 489.056 260.221 489.176 260.292C489.507 260.488 490 260.78 489.913 261.12V263.121C489.795 263.584 489.475 263.97 488.915 264.122L467.942 270.126L457.955 259.119L476.93 254.115C477.609 253.925 479.148 253.9 479.927 254.115L482.923 255.116ZM457.891 231.976C457.918 232.038 457.937 232.083 457.955 232.101L462.949 237.105C463.243 237.405 463.176 237.551 463.071 237.78C463.03 237.871 462.982 237.974 462.949 238.105V240.106C462.831 240.563 461.518 240.955 460.952 241.107L444.973 246.11L433.987 235.103L450.965 230.1C451.189 230.037 452.377 229.942 452.962 230.1L456.957 231.101C457.583 231.271 457.789 231.743 457.891 231.976ZM408.021 225.097C403.838 226.238 402.88 227.898 406.024 231.101L458.954 284.135C462.434 287.674 464.848 287.525 469.94 286.136L504.894 277.13C509.986 275.741 510.988 274.152 511.884 271.126L513.882 265.123C514.691 262.44 513.78 261.067 510.886 258.118L499.9 247.111C497.671 244.84 496.08 244.433 492.299 243.466C491.866 243.355 491.406 243.237 490.912 243.108L485.919 242.108V241.107C486.547 239.116 486.573 236.804 483.921 234.103L473.934 224.096C471.04 221.147 468.648 220.374 463.948 219.093L453.961 216.091C448.788 214.62 446.726 214.791 441.977 216.091L408.021 225.097ZM465.345 358.02C464.96 359.584 465.758 360.428 466.253 360.952C466.282 360.982 466.31 361.012 466.337 361.041L468.32 364.062C468.847 364.776 469.425 364.608 471.223 364.083L471.295 364.062L499.061 356.006C503.642 354.676 504.199 355.299 503.028 360.034L501.045 367.083C499.994 371.354 498.36 373.899 494.103 375.138L463.362 383.194C458.889 384.492 455.522 384.437 453.445 382.187L447.495 376.145C445.718 373.915 444.545 371.996 445.512 368.09L456.42 326.805C457.349 323.05 459.475 320.818 462.413 317.734C462.72 317.411 463.037 317.079 463.362 316.735L473.278 305.659C476.79 301.668 480.898 299.966 485.178 298.61L515.92 286.527C520.176 285.288 521.898 286.413 520.878 290.554L518.895 301.631C517.814 306.013 514.894 307.538 510.961 308.679L483.195 316.735C482.988 316.795 482.718 316.843 482.423 316.896C481.627 317.039 480.645 317.214 480.22 317.742L475.262 323.784C474.709 324.384 474.474 324.976 474.27 325.798L465.345 358.02ZM395.24 327.036L385.29 317.044L395.24 302.056V327.036ZM376.335 330.033L394.245 348.019V361.008C394.215 364.31 395.462 367.153 398.225 370.001L406.186 377.995C409.762 381.687 410.038 380.239 410.166 374.997L411.161 280.074C411.216 277.509 410.53 276.51 408.176 274.078L402.206 268.083C400.017 265.828 399.393 265.383 398.225 267.084L359.419 323.039C357.572 325.78 357.65 329.184 360.414 332.032L366.384 338.027C368.738 340.452 370.082 339.759 371.359 338.027L376.335 330.033Z" fill="white"/>
</g>
<defs>
<linearGradient id="paint0_linear_833_2412" x1="289.567" y1="46.0469" x2="621.525" y2="538.171" gradientUnits="userSpaceOnUse">
<stop stop-color="#7F4EFF"/>
<stop offset="1" stop-color="#00A6FF"/>
</linearGradient>
</defs>
</svg>
