<svg width="443" height="444" viewBox="0 0 443 444" fill="none" xmlns="http://www.w3.org/2000/svg">
<rect y="0.0507812" width="443" height="443" rx="12.8288" fill="#F0F1F4"/>
<g clip-path="url(#clip0_1231_3444)">
<path d="M353.932 240.563C348.646 240.563 345.928 244.038 345.496 244.578C344.158 242.053 341.721 240.563 338.484 240.563C333.824 240.563 331.192 243.261 330.761 243.714C330.567 242.981 329.618 241.017 326.619 241.017C325.756 241.017 324.483 241.297 324.375 241.319C324.504 241.88 325.065 244.642 325.065 248.441V265.166H331.171V248.117C331.3 248.009 333.587 245.7 336.327 245.7C339.067 245.7 340.448 247.75 340.448 250.556V265.166H346.596V248.117C346.726 248.009 348.969 245.7 351.753 245.7C354.536 245.7 355.83 247.75 355.83 250.556V265.166H362V249.606C362 244.146 358.894 240.585 353.91 240.585L353.932 240.563Z" fill="#231F20"/>
<path d="M286.834 260.72C282.671 260.72 279.715 257.44 279.715 253.145C279.715 248.354 283.081 245.506 286.834 245.506C288.862 245.506 289.704 246.131 291.041 246.131C292.465 246.131 293.242 245.441 293.932 244.06C294.321 243.304 294.558 242.851 294.558 242.851C294.256 242.657 291.149 240.563 285.885 240.563C278.183 240.563 273.566 246.088 273.566 253.145C273.566 260.85 278.83 265.684 285.885 265.684C290.998 265.684 294.105 263.591 294.644 263.202L292.53 259.015C292.055 259.318 289.876 260.72 286.834 260.72Z" fill="#231F20"/>
<path d="M219.746 240.563C213.878 240.563 208.938 245.333 208.938 253.145C208.938 260.958 213.727 265.684 220.911 265.684C226.607 265.684 229.562 263.181 229.908 262.965C229.908 262.965 229.347 262.058 229.196 261.799C228.397 260.483 227.491 260.073 226.477 260.073C224.471 260.073 224.212 260.915 221.472 260.915C216.79 260.915 215.151 257.246 215.043 254.807H230.749V252.994C230.749 245.506 226.434 240.563 219.768 240.563H219.746ZM215.021 250.469C215.021 247.728 216.941 245.182 219.638 245.182C222.659 245.182 224.32 247.815 224.385 250.469H215.021Z" fill="#231F20"/>
<path d="M241.209 258.368V233.334C241.209 230.507 239.332 228.327 236.398 228.327H235.082V260.828C235.082 263.828 236.937 265.684 240.152 265.684C244.122 265.684 245.308 262.857 245.308 260.203C245.136 260.289 244.294 260.634 243.453 260.634C242.029 260.634 241.188 259.814 241.188 258.39L241.209 258.368Z" fill="#231F20"/>
<path d="M200.284 257.527V245.614H205.398L207.188 241.017H200.284V233.809C200.284 233.809 199.745 233.809 199.724 233.809C197.005 233.809 194.179 234.974 194.179 240.952V241.017H189.648V245.614H194.179V259.642C194.179 263.613 196.531 265.685 199.853 265.685C202.55 265.685 206.023 264.864 206.023 259.534C205.807 259.663 204.513 260.505 203.068 260.505C201.083 260.505 200.284 259.297 200.284 257.527Z" fill="#231F20"/>
<path d="M258.145 240.563C252.276 240.563 247.336 245.332 247.336 253.145C247.336 260.957 252.125 265.684 259.31 265.684C265.005 265.684 267.961 263.18 268.306 262.964C268.306 262.964 267.745 262.058 267.594 261.799C266.796 260.482 265.89 260.072 264.876 260.072C262.869 260.072 262.61 260.914 259.87 260.914C255.189 260.914 253.549 257.245 253.441 254.807H269.147V252.994C269.147 245.505 264.833 240.563 258.145 240.563ZM253.42 250.469C253.42 247.728 255.34 245.181 258.037 245.181C261.057 245.181 262.718 247.814 262.783 250.469H253.42Z" fill="#231F20"/>
<path d="M308.698 265.685C301.212 265.685 296.703 260.743 296.703 253.124C296.703 245.506 301.147 240.542 308.698 240.542C316.249 240.542 320.715 245.549 320.715 253.124C320.715 260.289 316.616 265.685 308.698 265.685ZM308.698 260.98C312.452 260.98 314.61 257.743 314.61 253.146C314.61 248.549 312.495 245.29 308.698 245.29C304.901 245.29 302.787 248.484 302.787 253.146C302.787 257.807 304.901 260.98 308.698 260.98Z" fill="#231F20"/>
<path d="M111.546 238.384C107.857 236.658 104.815 235.255 104.815 232.428C104.815 230.27 106.541 228.694 109.95 228.694C111.201 228.694 112.237 228.845 113.294 229.04C113.855 229.126 114.437 229.212 114.933 229.212C117.911 229.212 119.593 227.443 120.715 224.054L121.168 222.673C120.694 222.479 115.818 220.342 109.475 220.342C99.3783 220.342 94.0495 226.817 94.0495 233.55C94.0495 236.938 95.1067 239.399 96.7679 241.341C98.9037 243.823 101.967 245.463 104.815 246.844C108.979 248.894 112.733 250.405 112.733 253.426C112.733 256.102 109.95 257.635 106.26 257.635C101.169 257.635 96.7463 254.721 96.1638 254.376L92 262.21C92.7335 262.62 98.127 266.051 106.972 266.051C116.4 266.051 123.541 260.634 123.541 252.326C123.541 244.017 116.918 240.974 111.568 238.384H111.546Z" fill="#231F20"/>
<path d="M148.419 242.247L165.527 221.271H153.338L139.703 239.377H139.509V221.271H129.477V265.685H130.081C134.417 265.685 139.595 263.678 139.595 256.426V246.218H139.789L153.683 265.124H166.455L148.419 242.226V242.247Z" fill="#231F20"/>
<path d="M166.082 173.684C162.544 174.353 157.301 177.568 157.323 183.244C157.323 188.402 161.551 191.531 161.573 198.286C161.573 203.358 158.79 206.789 155.77 208.688C156.999 208.58 158.337 208.516 159.804 208.516C162.889 208.516 164.766 208.796 164.874 208.818L180.731 189.352C176.33 182.748 171.173 177.633 166.082 173.705V173.684Z" fill="#231F20"/>
<path d="M179.411 226.256C181.417 223.148 181.654 218.184 181.827 213.156C182.021 208.451 182.992 204.912 189.292 204.89C190.694 204.89 192.01 205.084 194.426 205.063C203.638 205.02 209.679 201.847 213.411 199.754C205.753 194.876 194.599 189.891 180.727 189.33C179.82 191.877 172.809 211.408 172.27 212.983C172.356 213.069 173.586 214.451 175.117 217.148C177.383 220.839 178.591 223.968 179.411 226.256Z" fill="#231F20"/>
<path d="M145.913 210.306C145.115 210.306 144.705 209.788 144.597 208.86C144.489 207.933 140.519 171.633 139.937 166.151C139.85 165.353 139.656 163.885 139.656 163.346C139.656 162.504 140.196 162.051 140.843 162.051C142.72 162.051 152.967 164.446 163.841 172.064C160.713 172.949 155.039 176.208 155.06 182.963C155.06 188.941 159.353 192.221 159.375 198.221C159.418 207.954 148.221 210.328 145.891 210.328L145.913 210.306Z" fill="#231F20"/>
<path d="M180.322 228.845C180.495 229.298 180.646 229.687 180.819 229.946C181.077 230.377 181.401 230.571 181.789 230.571C182.048 230.571 182.35 230.485 182.696 230.334C183.537 229.946 216.653 214.537 221.637 212.227C222.37 211.882 223.729 211.256 224.183 210.997C224.657 210.738 224.873 210.35 224.873 209.94C224.873 209.724 224.808 209.487 224.679 209.292C224.053 208.278 220.86 204.89 215.488 201.156C211.238 203.509 204.593 207.113 194.712 207.156C192.296 207.156 191.735 207.005 190.095 207.005C185.263 207.005 184.076 209.077 183.882 213.306C183.861 214.105 183.839 215.184 183.796 216.371C183.645 220.148 183.192 225.37 180.301 228.845H180.322Z" fill="#231F20"/>
</g>
<defs>
<clipPath id="clip0_1231_3444">
<rect width="270" height="104" fill="white" transform="translate(92 162.051)"/>
</clipPath>
</defs>
</svg>
